<?xml version="1.0" encoding="UTF-8"?>
<svg width="107px" height="139px" viewBox="0 0 107 139" version="1.1" xmlns="http://www.w3.org/2000/svg" xmlns:xlink="http://www.w3.org/1999/xlink">
    <!-- Generator: Sketch 55.2 (78181) - https://sketchapp.com -->
    <title>logo1</title>
    <desc>Created with Sketch.</desc>
    <g id="Page-1" stroke="none" stroke-width="1" fill="none" fill-rule="evenodd">
        <g id="logo1" transform="translate(0.780000, 0.890000)" fill="#FFFFFF" fill-rule="nonzero">
            <polygon id="Path" points="26.755 22.3 32.38 9.81 32.12 9.55 24.49 9.55 24.12 5.335 23.965 0.65 28.4 0.275 28.56 5.605 37.04 5.605 37.34 8.95 31.945 22.3"></polygon>
            <path d="M28.155,0.545 L28.3,5.37 L28.315,5.855 L28.8,5.855 L36.81,5.855 L37.085,8.915 L31.775,22.05 L27.145,22.05 L32.535,10.07 L32.675,9.755 L32.43,9.51 L32.365,9.445 L32.22,9.3 L32.015,9.3 L24.72,9.3 L24.37,5.325 L24.225,0.88 L28.155,0.545 L28.155,0.545 Z M28.64,5.68434189e-14 L23.71,0.42 L23.87,5.35 L24.26,9.795 L32.015,9.795 L32.08,9.86 L26.37,22.545 L32.11,22.545 L37.595,8.985 L37.27,5.35 L28.805,5.35 L28.64,5.68434189e-14 L28.64,5.68434189e-14 Z" id="Shape"></path>
            <path d="M74.085,22.3 L74.17,18.16 L81.185,18.16 L81.335,17.63 L81.26,17.53 C80.875,17.02 80.505,16.54 80.12,16.05 C79.225,14.905 78.3,13.72 77.015,11.83 L72.92,5.815 L72.925,5.78 L78.19,5.385 L82.43,12.66 L82.86,12.515 L84.08,5.6 L88.565,5.6 C87.525,10.855 86.665,13.215 85.07,15.22 L85.015,15.29 L85.015,15.54 L88.08,18.83 L87.455,22.295 L74.085,22.295 L74.085,22.3 Z" id="Path"></path>
            <path d="M78.065,5.65 L82.125,12.615 L82.33,12.965 L82.715,12.835 L82.81,12.805 L83.095,12.71 L83.145,12.415 L84.305,5.855 L88.275,5.855 C87.27,10.855 86.425,13.135 84.89,15.07 L84.78,15.205 L84.78,15.38 L84.78,15.445 L84.78,15.64 L84.915,15.785 L87.825,18.91 L87.26,22.05 L74.335,22.05 L74.41,18.41 L80.995,18.41 L81.37,18.41 L81.475,18.045 L81.54,17.82 L81.61,17.58 L81.46,17.38 C81.075,16.865 80.705,16.395 80.315,15.895 C79.425,14.755 78.5,13.575 77.22,11.69 L73.345,6 L78.065,5.65 L78.065,5.65 Z M78.34,5.125 L72.73,5.545 L72.665,5.87 L76.82,11.97 C78.67,14.695 79.805,15.995 81.07,17.68 L81.005,17.905 L73.935,17.905 L73.84,22.545 L87.695,22.545 L88.375,18.75 L85.295,15.44 L85.295,15.375 C87.045,13.17 87.89,10.51 88.895,5.35 L83.9,5.35 L82.665,12.325 L82.57,12.355 L78.34,5.125 L78.34,5.125 Z" id="Shape"></path>
            <path d="M90.92,22.3 L90.92,18.16 L98.35,18.16 L98.35,11.585 C98.35,10.75 98.31,10.235 98.215,9.75 L98.175,9.56 L97.98,9.55 C97.405,9.515 96.765,9.485 95.985,9.485 C94.745,9.485 92.795,9.51 91.25,9.57 L90.905,5.585 C92.525,5.465 94.22,5.41 96.215,5.41 C101.675,5.41 103.265,6.255 103.265,11.845 L103.265,18.205 L105.405,18.4 L105.405,22.3 L90.92,22.3 Z" id="Path"></path>
            <path d="M96.215,5.66 C101.565,5.66 103.015,6.43 103.015,11.845 L103.015,17.975 L103.015,18.43 L103.47,18.47 L105.155,18.625 L105.155,22.05 L91.165,22.05 L91.165,18.41 L98.095,18.41 L98.595,18.41 L98.595,17.91 L98.595,11.585 C98.595,10.73 98.555,10.205 98.455,9.705 L98.38,9.325 L97.995,9.3 C97.415,9.265 96.77,9.235 95.985,9.235 C94.805,9.235 92.99,9.255 91.48,9.315 L91.175,5.82 C93.19,5.675 95,5.66 96.215,5.66 L96.215,5.66 Z M96.215,5.16 C94.66,5.16 92.71,5.19 90.635,5.355 L91.025,9.83 C92.45,9.765 94.465,9.735 95.99,9.735 C96.77,9.735 97.415,9.765 97.97,9.8 C98.065,10.285 98.1,10.805 98.1,11.585 L98.1,17.91 L90.67,17.91 L90.67,22.55 L105.66,22.55 L105.66,18.17 L103.52,17.975 L103.52,11.845 C103.515,6.035 101.73,5.16 96.215,5.16 L96.215,5.16 Z" id="Shape"></path>
            <path d="M27.89,60.685 C27.68,59.84 27.57,58.86 27.56,57.71 C28.12,57.6 28.915,57.49 29.805,57.49 C30.12,57.49 30.43,57.505 30.72,57.535 L30.635,60.545 L27.89,60.685 Z" id="Path"></path>
            <path d="M29.805,57.74 C30.03,57.74 30.25,57.75 30.465,57.765 L30.395,60.31 L28.09,60.43 C27.93,59.7 27.84,58.875 27.82,57.925 C28.345,57.825 29.04,57.74 29.805,57.74 L29.805,57.74 Z M29.805,57.24 C28.925,57.24 28.05,57.35 27.31,57.505 C27.31,58.705 27.405,59.875 27.7,60.945 L30.88,60.785 L30.975,57.315 C30.595,57.26 30.2,57.24 29.805,57.24 L29.805,57.24 Z" id="Shape"></path>
            <path d="M22.83,60.685 C22.62,59.84 22.51,58.86 22.5,57.71 C23.06,57.6 23.855,57.49 24.745,57.49 C25.06,57.49 25.37,57.505 25.66,57.535 L25.575,60.545 L22.83,60.685 Z" id="Path"></path>
            <path d="M24.745,57.74 C24.97,57.74 25.19,57.75 25.405,57.765 L25.335,60.31 L23.03,60.43 C22.87,59.7 22.78,58.875 22.76,57.925 C23.285,57.825 23.98,57.74 24.745,57.74 L24.745,57.74 Z M24.745,57.24 C23.865,57.24 22.99,57.35 22.25,57.505 C22.25,58.705 22.345,59.875 22.64,60.945 L25.82,60.785 L25.915,57.315 C25.535,57.26 25.14,57.24 24.745,57.24 L24.745,57.24 Z" id="Shape"></path>
            <path d="M34.83,41.02 L36.47,40.58 L36.235,40.28 C35.76,39.68 35.51,39.06 35.51,38.49 C35.51,36.905 36.92,35.27 39.285,35.27 C39.895,35.27 40.435,35.33 41.05,35.47 L40.735,37.665 C40.235,37.56 39.62,37.495 39.03,37.495 C38.34,37.495 37.455,37.6 37.16,38.105 L37.105,38.195 L37.135,38.295 C37.375,39.18 39.195,39.865 41.565,39.97 L42.125,39.925 L42.125,41.895 L34.84,42.625 L34.84,41.02 L34.83,41.02 Z" id="Path"></path>
            <path d="M39.28,35.525 C39.795,35.525 40.26,35.57 40.765,35.67 L40.52,37.375 C40.06,37.295 39.535,37.25 39.025,37.25 C37.925,37.25 37.225,37.495 36.94,37.985 L36.835,38.165 L36.89,38.365 C37.205,39.52 39.46,40.135 41.55,40.225 L41.58,40.225 L41.61,40.225 L41.865,40.205 L41.865,41.675 L35.08,42.355 L35.08,41.215 L36.17,40.925 L36.905,40.73 L36.435,40.135 C36,39.585 35.765,39.005 35.765,38.5 C35.76,37.035 37.075,35.525 39.28,35.525 L39.28,35.525 Z M39.28,35.025 C36.88,35.025 35.255,36.68 35.255,38.495 C35.255,39.145 35.545,39.825 36.035,40.44 L34.575,40.83 L34.575,42.905 L42.36,42.125 L42.36,39.66 L41.565,39.725 C39.27,39.625 37.56,38.945 37.365,38.235 C37.59,37.845 38.405,37.75 39.02,37.75 C39.605,37.75 40.35,37.815 40.935,37.975 L41.325,35.28 C40.545,35.09 39.93,35.025 39.28,35.025 L39.28,35.025 Z" id="Shape"></path>
            <path d="M91.445,41.315 C91.235,40.47 91.125,39.49 91.115,38.34 C91.675,38.23 92.47,38.12 93.36,38.12 C93.68,38.12 93.985,38.135 94.275,38.165 L94.19,41.175 L91.445,41.315 Z" id="Path"></path>
            <path d="M93.36,38.37 C93.585,38.37 93.805,38.38 94.02,38.395 L93.95,40.94 L91.645,41.06 C91.485,40.33 91.395,39.505 91.375,38.555 C91.895,38.455 92.59,38.37 93.36,38.37 L93.36,38.37 Z M93.36,37.87 C92.48,37.87 91.605,37.98 90.865,38.135 C90.865,39.335 90.96,40.505 91.255,41.575 L94.435,41.415 L94.53,37.945 C94.145,37.895 93.75,37.87 93.36,37.87 L93.36,37.87 Z" id="Shape"></path>
            <path d="M55.825,137.12 C55.79,137.12 55.76,137.115 55.73,137.11 C55.59,137.075 55.465,136.945 55.36,136.82 C53.655,134.825 54.165,131.935 54.655,129.14 C54.72,128.78 54.78,128.425 54.84,128.075 C55.75,122.49 54.56,117.575 53.305,112.375 C52.955,110.92 52.59,109.415 52.275,107.895 C51.875,105.975 51.925,103.81 51.97,101.715 C52.03,99.05 52.09,96.29 51.24,93.945 C50.375,91.555 48.405,91.355 46.625,91.355 C46.315,91.355 46.005,91.36 45.695,91.37 L45.065,91.38 C44.88,91.38 44.465,91.38 43.945,91.375 C43.08,91.37 41.935,91.365 41.08,91.365 C40.665,91.365 40.37,91.365 40.165,91.37 L40.31,88.18 L46.3,80.175 L46.315,80.135 C46.41,79.83 46.49,79.515 46.56,79.2 L46.63,78.895 L40.46,78.955 L40.655,75.6 C40.655,75.6 40.66,75.6 40.66,75.6 C40.865,75.61 41.185,75.62 41.58,75.62 C45.845,75.62 48.22,74.225 48.265,71.7 C48.3,69.855 48.235,67.945 47.055,66.625 C46.545,66.055 45.885,65.675 45.245,65.31 C44.925,65.125 44.595,64.935 44.295,64.725 C42.71,63.625 41.71,61.87 40.74,60.17 C40.39,59.55 40.025,58.915 39.64,58.31 C37.575,55.105 35.565,54.955 32.78,54.745 C32.375,54.715 31.945,54.685 31.5,54.64 C30.885,54.58 26.945,53.34 26.625,53.045 C26.64,53.055 26.67,53.1 26.675,53.17 L26.61,53.33 L26.255,52.98 C25.095,54.14 23.315,54.755 21.115,54.755 C19.88,54.755 18.835,54.46 18.085,53.895 L17.725,53.625 L17.685,54.07 C17.525,55.85 17.21,57.235 16.72,58.29 C15.3,59.59 12.145,60.43 8.655,60.43 C3.15,60.43 0.245,57.635 0.245,52.345 C0.245,51.325 0.39,49.72 1.08,47.825 L4.64,47.825 C4.515,48.735 4.385,49.81 4.385,50.655 C4.385,54.29 5.715,55.575 9.47,55.575 C11.065,55.575 12.31,55.425 13.28,55.11 L13.44,55.06 L13.455,54.895 C13.505,54.33 13.5,53.65 13.495,52.93 C13.495,52.68 13.49,52.415 13.49,52.15 L13.49,31.97 L17.79,31.565 L17.79,47.055 C17.86,50.025 18.52,50.42 21.12,50.42 C22.63,50.42 23.745,50.255 24.53,49.91 L24.655,49.855 L24.68,49.725 C24.775,49.19 24.815,48.445 24.815,47.15 L24.815,44.525 L28.855,44.18 L28.855,46.73 C28.855,49.8 29.495,50.42 32.675,50.42 C34.165,50.42 35.31,50.25 36.085,49.91 L36.21,49.855 L36.235,49.725 C36.33,49.19 36.37,48.445 36.37,47.15 L36.37,44.525 C37.11,44.46 39.455,44.26 40.34,44.185 C40.245,46.155 41.875,54.13 41.905,54.2 C42.63,56.145 43.73,57.265 44.915,57.265 C46.08,57.265 47.04,56.19 47.54,54.325 C48.04,52.46 48.035,50.475 48.025,48.55 C48.02,47.615 48.02,46.655 48.075,45.74 C48.18,44.07 48.225,42.365 48.27,40.715 C48.38,36.51 48.495,32.16 49.625,28.01 C50.51,24.75 50.395,19.095 47.35,16.735 C46.995,16.46 46.535,16.305 46.08,16.305 C45.58,16.305 45.15,16.495 44.875,16.845 C44.47,17.36 44.49,18.035 44.575,18.69 C44.735,19.92 45,21.145 45.36,22.33 L45.39,22.43 C45.585,23.065 45.785,23.725 45.615,24.315 C45.425,24.975 44.72,25.45 43.94,25.45 C43.765,25.45 43.595,25.425 43.435,25.375 C42.105,24.95 41.605,23.26 41.81,21.88 C41.935,21.04 42.235,20.25 42.56,19.42 C42.79,18.825 43.025,18.21 43.185,17.58 C43.795,15.22 43.07,11.285 42.04,9.475 C41.79,9.04 41.3,8.47 40.78,7.87 C40.19,7.185 39.455,6.34 39.36,5.93 L39.39,5.75 L44.725,5.415 L50.09,13.2 L50.445,13.025 L50.475,12.92 C50.855,11.625 50.905,9.86 50.905,8.145 C50.905,7.2 50.88,6.42 50.85,5.605 L55.5,5.605 C55.5,6.56 55.495,7.54 55.435,8.485 C55.225,11.905 54.39,14.245 52.815,15.85 L52.68,15.99 L52.785,16.155 C53.09,16.65 53.4,17.205 53.725,17.785 C55.005,20.09 56.46,22.705 58.54,22.705 C59.47,22.705 60.415,22.195 61.42,21.145 C61.89,20.655 67.42,10.815 66.28,9.675 L66.14,9.535 L58.51,9.535 L58.14,5.32 L57.985,0.64 L62.415,0.26 L62.575,5.59 L71.055,5.59 L71.36,8.995 C71.6,11.68 69.64,15.705 68.45,17.865 C65.74,22.785 64.145,26.8 64.545,31.61 L64.575,31.925 C64.7,33.3 65.085,37.475 63.98,38.685 C63.795,38.89 63.575,38.99 63.315,38.99 C63.1,38.99 62.85,38.92 62.57,38.785 C60.885,37.96 61.27,33.99 61.525,31.365 C61.62,30.385 61.705,29.54 61.675,28.98 C61.635,28.18 61.585,27.09 60.97,26.295 C60.375,25.525 59.615,25.135 58.705,25.135 C56.53,25.135 54.01,27.465 52.99,29.04 C51.335,31.6 51.075,34.865 50.96,37.725 C50.88,39.635 51.02,41.605 51.165,43.69 C51.445,47.71 51.74,51.865 50.345,55.435 C50.2,55.81 50.045,56.18 49.885,56.555 C49.22,58.145 48.535,59.785 48.63,61.53 C48.67,62.25 48.87,62.76 49.235,63.09 C49.67,63.48 50.13,63.675 50.6,63.675 C54.22,63.675 57.13,52.135 57.265,50.69 C57.275,50.585 57.28,50.335 57.29,50.005 C57.375,46.775 57.61,45.96 57.795,45.84 C57.87,45.835 58.15,45.81 58.52,45.78 C60.64,45.59 61.685,45.495 62.2,45.41 L62.2,47.675 C62.2,49.98 62.885,50.39 64.82,50.39 C65.87,50.39 66.405,50.33 66.945,50.15 L67.095,50.1 L67.115,49.945 C67.215,49.185 67.215,48.17 67.215,46.635 L67.215,45.405 L71.32,45.03 L71.32,46.83 C71.32,49.9 72.11,50.39 74.65,50.39 C75.235,50.39 75.79,50.39 76.345,50.215 L76.505,50.165 L76.52,50 C76.585,49.34 76.62,48.395 76.62,47.12 L76.62,44.495 L80.725,44.12 L80.725,46.7 C80.725,49.77 81.37,50.39 84.545,50.39 C86.035,50.39 87.18,50.22 87.955,49.88 L88.08,49.825 L88.105,49.695 C88.2,49.16 88.24,48.415 88.24,47.12 L88.24,44.495 L92.28,44.15 L92.28,46.7 C92.28,49.77 92.925,50.39 96.1,50.39 C97.575,50.39 98.785,50.335 99.92,50.06 L100.12,50.01 L100.11,49.8 C100.015,48.1 99.885,46.41 99.76,44.775 C99.72,44.24 99.68,43.715 99.64,43.19 L103.91,42.725 C104.025,44.505 104.085,46.32 104.085,48.125 C104.085,51.075 103.95,52.32 103.52,53.34 C101.58,54.54 98.045,54.72 96.095,54.72 C93.25,54.72 91.265,54.14 90.04,52.94 L89.865,52.77 L89.69,52.945 C88.53,54.105 86.75,54.72 84.545,54.72 C82.29,54.72 80.805,54.72 79.315,53.54 L79.155,53.415 L79,53.545 C77.87,54.49 76.405,54.945 74.52,54.945 C71.99,54.945 70.21,54.335 69.23,53.125 L68.84,53.44 C68.83,53.43 68.83,53.4 68.835,53.385 C68.65,53.835 65.415,54.685 64.91,54.755 C64.64,54.79 64.385,54.825 64.135,54.855 C62.44,55.06 61.1,55.225 59.515,56.59 C57.895,57.985 56.805,59.86 56.12,61.15 C54.48,64.245 53.77,67.68 53.085,71 C52.36,74.5 51.61,78.125 49.765,81.295 C49.635,81.52 49.42,81.83 49.17,82.18 C48.07,83.745 46.41,86.11 47.71,87.475 C48.095,87.875 48.61,88.08 49.25,88.08 C50.035,88.08 50.865,87.78 51.575,87.485 C53.045,86.875 54.18,86.235 55.29,84.94 C55.395,84.815 55.5,84.69 55.61,84.565 C56.315,83.725 56.985,82.93 57.945,82.565 C59.07,82.14 60.75,81.875 62.33,81.875 C62.975,81.875 63.445,81.905 63.82,81.94 L64.09,81.965 L64.09,80.92 C64.09,79.15 63.365,78.87 61.04,78.87 C59.765,78.87 57.715,79.085 55.875,79.56 L56.125,76.055 C57.91,75.47 60.035,75.125 61.84,75.125 C66.675,75.125 68.475,76.68 68.475,80.86 L68.475,85.795 C68.475,86.15 68.48,86.505 68.485,86.86 C68.5,87.83 68.515,88.84 68.41,89.815 C68.355,90.35 68.23,90.885 68.11,91.405 C67.905,92.305 67.69,93.23 67.795,94.21 C67.85,94.725 67.995,95.21 68.13,95.68 C68.39,96.57 68.63,97.405 68.28,98.325 C67.975,99.12 67.535,99.56 67.045,99.56 C66.385,99.56 65.755,98.77 65.645,97.8 C65.55,96.97 65.655,96.115 65.76,95.29 C65.85,94.595 65.94,93.875 65.91,93.155 C65.89,92.665 65.86,92.185 65.65,91.75 C65.335,91.09 64.625,90.6 63.79,90.465 C63.505,90.42 63.23,90.395 62.965,90.395 C60.505,90.395 59.11,92.4 59.04,96.04 C59.015,97.265 59.085,98.5 59.15,99.695 C59.235,101.225 59.32,102.805 59.215,104.36 C59.085,106.26 58.5,107.855 57.93,109.395 C57.3,111.11 56.645,112.885 56.605,115.095 C56.55,118.11 57.02,121.14 57.47,124.07 C57.815,126.31 58.175,128.63 58.29,130.915 C58.445,133.935 57.78,135.95 56.31,136.91 C56.12,137.055 55.96,137.12 55.825,137.12 Z M61.84,84.155 C61.005,84.155 60.13,84.355 59.545,84.525 C54.94,85.89 53.6,91.11 53.215,94.095 C52.955,96.085 52.985,98.13 53.31,100.345 C53.36,100.705 53.375,101.145 53.355,101.725 C53.345,102.06 53.32,102.405 53.3,102.75 C53.2,104.335 53.095,105.97 53.81,107.085 C54.175,107.65 54.86,108.005 55.6,108.005 C55.94,108.005 56.27,107.93 56.56,107.785 C58.465,106.845 58.365,103.33 58.305,101.235 L58.295,100.755 C58.285,100.295 58.255,99.87 58.23,99.545 C58.165,98.745 58.02,97.91 57.88,97.105 C57.38,94.235 56.91,91.52 59.75,89.78 C60.15,89.535 60.59,89.38 61.055,89.22 C61.6,89.03 62.165,88.83 62.67,88.475 C63.295,88.03 64.065,87.175 64.17,86.22 C64.23,85.69 64.065,85.195 63.7,84.79 C63.315,84.37 62.69,84.155 61.84,84.155 Z" id="Shape"></path>
            <path d="M62.155,0.545 L62.3,5.37 L62.315,5.855 L62.8,5.855 L70.81,5.855 L71.095,9.035 C71.33,11.655 69.39,15.63 68.215,17.765 C65.485,22.725 63.875,26.78 64.28,31.65 C64.285,31.735 64.295,31.845 64.31,31.97 C64.64,35.58 64.465,37.79 63.78,38.535 C63.64,38.69 63.49,38.76 63.3,38.76 C63.12,38.76 62.91,38.7 62.665,38.58 C61.135,37.83 61.51,33.965 61.76,31.405 C61.855,30.415 61.94,29.56 61.91,28.985 C61.87,28.155 61.815,27.015 61.155,26.16 C60.51,25.325 59.68,24.905 58.69,24.905 C56.395,24.905 53.845,27.255 52.765,28.925 C51.075,31.54 50.81,34.845 50.695,37.735 C50.615,39.66 50.76,41.73 50.905,43.73 C51.185,47.72 51.475,51.845 50.1,55.37 C49.955,55.74 49.8,56.115 49.645,56.485 C48.97,58.1 48.27,59.765 48.37,61.57 C48.415,62.36 48.64,62.925 49.06,63.305 C49.54,63.735 50.055,63.955 50.595,63.955 C54.44,63.955 57.365,52.275 57.51,50.745 C57.52,50.625 57.53,50.395 57.535,50.045 C57.595,47.82 57.725,46.5 57.925,46.115 C58.065,46.1 58.28,46.08 58.545,46.06 C59.22,46 60.21,45.91 61.03,45.83 C61.405,45.795 61.705,45.765 61.945,45.735 L61.945,47.71 C61.945,50.245 62.83,50.675 64.815,50.675 C65.895,50.675 66.45,50.61 67.015,50.42 L67.31,50.32 L67.35,50.01 C67.45,49.23 67.45,48.21 67.45,46.67 L67.45,45.665 L71.055,45.335 L71.055,46.865 C71.055,50.1 71.995,50.675 74.635,50.675 C75.24,50.675 75.815,50.675 76.405,50.49 L76.72,50.39 L76.755,50.06 C76.82,49.39 76.855,48.44 76.855,47.155 L76.855,44.755 L80.46,44.425 L80.46,46.73 C80.46,49.935 81.22,50.67 84.53,50.67 C86.075,50.67 87.22,50.495 88.04,50.14 L88.285,50.035 L88.33,49.77 C88.43,49.215 88.465,48.46 88.465,47.155 L88.465,44.76 L92.005,44.455 L92.005,46.735 C92.005,49.94 92.765,50.675 96.075,50.675 C97.565,50.675 98.795,50.615 99.955,50.335 L100.36,50.235 L100.335,49.82 C100.24,48.11 100.11,46.415 99.985,44.775 C99.95,44.33 99.915,43.885 99.885,43.45 L103.655,43.04 C103.76,44.735 103.815,46.455 103.815,48.165 C103.815,51.005 103.695,52.235 103.3,53.21 C101.895,54.04 99.28,54.51 96.075,54.51 C93.295,54.51 91.375,53.95 90.195,52.805 L89.84,52.46 L89.49,52.81 C88.375,53.925 86.66,54.515 84.525,54.515 L84.49,54.515 C82.31,54.515 80.87,54.515 79.45,53.39 L79.13,53.14 L78.82,53.4 C77.735,54.305 76.32,54.745 74.5,54.745 C72.05,54.745 70.335,54.165 69.405,53.015 L68.63,53.645 C68.54,53.53 68.555,53.36 68.61,53.3 C68.275,53.705 65.45,54.46 64.86,54.555 C64.59,54.59 64.335,54.625 64.085,54.655 C62.415,54.86 60.97,55.035 59.33,56.45 C57.68,57.875 56.57,59.775 55.88,61.08 C54.225,64.205 53.51,67.66 52.82,70.995 C52.1,74.475 51.355,78.08 49.53,81.215 C49.405,81.43 49.19,81.735 48.945,82.08 C47.8,83.71 46.065,86.175 47.51,87.69 C47.94,88.145 48.52,88.375 49.23,88.375 C50.06,88.375 50.92,88.065 51.65,87.76 C53.115,87.15 54.32,86.475 55.46,85.15 C55.565,85.025 55.675,84.9 55.78,84.77 C56.465,83.955 57.11,83.185 58.015,82.84 C59.115,82.425 60.76,82.165 62.31,82.165 C62.945,82.165 63.41,82.195 63.78,82.23 L64.32,82.275 L64.32,81.73 L64.32,80.96 C64.32,79.005 63.455,78.66 61.02,78.66 C59.805,78.66 57.9,78.85 56.13,79.275 L56.345,76.285 C58.075,75.74 60.095,75.415 61.82,75.415 C66.535,75.415 68.205,76.85 68.205,80.9 L68.205,85.835 C68.205,86.19 68.21,86.545 68.215,86.9 C68.23,87.865 68.245,88.865 68.14,89.825 C68.085,90.345 67.97,90.85 67.845,91.385 C67.635,92.305 67.415,93.255 67.525,94.27 C67.585,94.805 67.73,95.3 67.87,95.785 C68.125,96.67 68.35,97.43 68.025,98.27 C67.765,98.95 67.4,99.345 67.02,99.345 C66.55,99.345 65.975,98.725 65.87,97.805 C65.775,97.005 65.88,96.205 65.985,95.355 C66.075,94.65 66.165,93.92 66.14,93.18 C66.12,92.66 66.085,92.155 65.855,91.675 C65.5,90.93 64.735,90.4 63.805,90.25 C63.505,90.2 63.215,90.18 62.94,90.18 C60.355,90.18 58.835,92.325 58.765,96.07 C58.74,97.3 58.81,98.54 58.875,99.74 C58.96,101.265 59.045,102.84 58.94,104.375 C58.815,106.24 58.26,107.745 57.67,109.34 C57.03,111.075 56.37,112.865 56.33,115.12 C56.275,118.16 56.745,121.195 57.2,124.135 C57.545,126.37 57.9,128.68 58.02,130.955 C58.17,133.88 57.545,135.82 56.155,136.73 C55.955,136.86 55.845,136.88 55.795,136.88 C55.785,136.88 55.77,136.88 55.76,136.875 C55.675,136.855 55.555,136.71 55.515,136.665 C53.885,134.76 54.385,131.93 54.865,129.19 C54.93,128.83 54.99,128.475 55.05,128.12 C55.97,122.485 54.775,117.545 53.51,112.32 C53.16,110.865 52.795,109.365 52.48,107.845 C52.09,105.95 52.135,103.8 52.18,101.725 C52.24,99.035 52.3,96.255 51.435,93.865 C50.555,91.445 48.585,91.11 46.585,91.11 C46.275,91.11 45.96,91.115 45.65,91.125 C45.47,91.13 45.285,91.135 45.105,91.135 L45.025,91.135 C44.84,91.135 44.425,91.135 43.91,91.13 C43.045,91.125 41.89,91.12 41.035,91.12 C40.79,91.12 40.57,91.12 40.385,91.12 L40.515,88.275 L46.435,80.365 L46.485,80.295 L46.51,80.21 C46.605,79.9 46.69,79.58 46.76,79.255 L46.895,78.64 L46.265,78.645 L40.68,78.7 C40.77,77.13 40.82,76.3 40.845,75.855 C41.035,75.86 41.27,75.865 41.54,75.865 C45.96,75.865 48.425,74.385 48.475,71.7 C48.51,69.805 48.445,67.84 47.2,66.455 C46.66,65.855 45.985,65.47 45.33,65.09 C45,64.9 44.69,64.72 44.4,64.52 C42.86,63.45 41.92,61.795 40.92,60.045 C40.565,59.425 40.2,58.785 39.81,58.175 C37.675,54.865 35.615,54.71 32.76,54.495 C32.355,54.465 31.93,54.435 31.485,54.39 C30.995,54.345 27.19,53.18 26.74,52.85 C26.775,52.875 26.865,52.975 26.88,53.14 L26.395,53.16 L26.04,52.805 C24.925,53.915 23.21,54.505 21.075,54.505 C20.255,54.505 19.085,54.365 18.195,53.695 L17.475,53.155 L17.395,54.05 C17.24,55.775 16.94,57.115 16.475,58.14 C15.08,59.38 12.015,60.18 8.615,60.18 C3.275,60.18 0.455,57.47 0.455,52.34 C0.455,51.37 0.59,49.86 1.215,48.07 L4.315,48.07 C4.2,48.92 4.095,49.88 4.095,50.65 C4.095,54.42 5.54,55.82 9.43,55.82 C11.05,55.82 12.32,55.665 13.315,55.34 L13.63,55.24 L13.66,54.91 C13.71,54.33 13.705,53.645 13.7,52.92 C13.7,52.67 13.695,52.41 13.695,52.14 L13.695,32.19 L17.495,31.83 L17.495,47.06 C17.57,50.19 18.365,50.665 21.075,50.665 C22.62,50.665 23.765,50.49 24.585,50.135 L24.83,50.03 L24.875,49.765 C24.975,49.21 25.01,48.455 25.01,47.15 L25.01,44.755 L28.55,44.45 L28.55,46.73 C28.55,49.935 29.31,50.67 32.62,50.67 C34.165,50.67 35.31,50.495 36.13,50.14 L36.375,50.035 L36.42,49.77 C36.52,49.215 36.555,48.46 36.555,47.155 L36.555,44.76 L40.02,44.465 C40.04,45.14 40.18,46.45 40.61,49.09 C40.96,51.225 41.46,53.905 41.605,54.295 C42.37,56.345 43.555,57.52 44.85,57.52 C46.14,57.52 47.185,56.38 47.72,54.39 C48.23,52.495 48.22,50.49 48.215,48.55 C48.21,47.58 48.21,46.66 48.265,45.755 C48.37,44.08 48.415,42.37 48.46,40.725 C48.57,36.535 48.685,32.2 49.805,28.08 C50.71,24.755 50.575,18.975 47.44,16.54 C47.045,16.23 46.525,16.055 46.02,16.055 C45.44,16.055 44.94,16.28 44.62,16.69 C44.155,17.28 44.18,18.05 44.27,18.725 C44.435,19.97 44.7,21.205 45.065,22.405 L45.095,22.505 C45.28,23.105 45.47,23.73 45.315,24.25 C45.155,24.795 44.54,25.205 43.88,25.205 C43.73,25.205 43.585,25.185 43.45,25.14 C42.295,24.77 41.805,23.215 41.995,21.92 C42.115,21.105 42.415,20.33 42.73,19.51 C42.96,18.91 43.2,18.29 43.365,17.645 C43.985,15.23 43.245,11.205 42.195,9.355 C41.935,8.895 41.435,8.32 40.905,7.71 C40.44,7.17 39.76,6.385 39.575,5.99 L44.53,5.68 L49.69,13.17 L49.935,13.53 L50.325,13.335 L50.39,13.305 L50.585,13.205 L50.645,12.995 C51.035,11.67 51.085,9.88 51.085,8.15 C51.085,7.305 51.065,6.585 51.04,5.86 L55.18,5.86 C55.18,6.73 55.17,7.62 55.115,8.475 C54.905,11.83 54.095,14.12 52.565,15.68 L52.29,15.96 L52.495,16.295 C52.8,16.785 53.105,17.335 53.425,17.915 C54.74,20.285 56.23,22.965 58.46,22.965 C59.465,22.965 60.465,22.43 61.52,21.33 C62.065,20.76 63.6,17.91 64.69,15.61 C67.19,10.325 66.66,9.8 66.375,9.515 L66.31,9.45 L66.165,9.305 L65.96,9.305 L58.665,9.305 L58.315,5.33 L58.17,0.885 L62.155,0.545 L62.155,0.545 Z M55.595,108.26 C55.97,108.26 56.34,108.175 56.665,108.015 C58.715,107.005 58.61,103.39 58.55,101.23 C58.545,101.06 58.54,100.9 58.54,100.755 C58.53,100.28 58.5,99.83 58.475,99.53 C58.41,98.715 58.265,97.875 58.125,97.065 C57.62,94.16 57.185,91.65 59.88,89.995 C60.255,89.765 60.685,89.615 61.135,89.455 C61.7,89.26 62.28,89.055 62.815,88.675 C63.48,88.2 64.3,87.28 64.415,86.245 C64.48,85.64 64.3,85.08 63.885,84.62 C63.455,84.14 62.77,83.9 61.845,83.9 C60.98,83.9 60.08,84.11 59.475,84.285 C57.44,84.89 53.89,86.96 52.97,94.06 C52.71,96.07 52.74,98.14 53.065,100.38 C53.115,100.725 53.13,101.15 53.105,101.715 C53.095,102.045 53.07,102.39 53.05,102.735 C52.945,104.36 52.84,106.035 53.6,107.22 C54.005,107.865 54.775,108.26 55.595,108.26 L55.595,108.26 Z M62.64,-1.13686838e-13 L57.71,0.42 L57.87,5.35 L58.26,9.795 L66.015,9.795 C66.015,9.795 66.08,9.86 66.08,9.86 C66.92,10.7 62.1,20.055 61.215,20.98 C60.205,22.03 59.315,22.46 58.515,22.46 C56.085,22.46 54.5,18.495 52.97,16.025 C54.755,14.21 55.47,11.645 55.665,8.5 C55.73,7.46 55.73,6.39 55.73,5.355 L50.57,5.355 C50.6,6.265 50.635,7.105 50.635,8.145 C50.635,9.67 50.605,11.52 50.215,12.85 L50.15,12.88 L44.83,5.16 L39.155,5.515 L39.09,5.935 C39.22,6.74 41.245,8.61 41.81,9.6 C42.8,11.34 43.53,15.195 42.93,17.52 C42.55,18.99 41.775,20.345 41.55,21.845 C41.325,23.345 41.9,25.155 43.345,25.615 C43.535,25.675 43.73,25.705 43.93,25.705 C44.765,25.705 45.61,25.195 45.845,24.39 C46.05,23.695 45.8,22.955 45.59,22.26 C45.235,21.085 44.975,19.88 44.815,18.66 C44.74,18.09 44.705,17.455 45.06,17 C45.305,16.69 45.68,16.555 46.07,16.555 C46.465,16.555 46.875,16.695 47.185,16.935 C50.16,19.245 50.21,24.875 49.375,27.945 C47.795,33.755 48.19,39.78 47.82,45.725 C47.645,48.505 48.03,51.52 47.29,54.26 C46.795,56.1 45.88,57.015 44.905,57.015 C43.905,57.015 42.85,56.05 42.125,54.115 C41.895,53.495 40.175,43.95 40.65,43.905 C40.625,43.905 36.11,44.295 36.11,44.295 L36.11,47.15 C36.11,48.35 36.08,49.13 35.98,49.68 C35.235,50.005 34.13,50.165 32.67,50.165 C29.62,50.165 29.1,49.645 29.1,46.725 L29.1,43.905 L24.56,44.295 L24.56,47.15 C24.56,48.35 24.53,49.13 24.43,49.68 C23.685,50.005 22.58,50.165 21.12,50.165 C18.62,50.165 18.105,49.84 18.04,47.05 L18.04,31.285 L13.24,31.74 L13.24,52.145 C13.24,53.185 13.27,54.125 13.21,54.87 C12.105,55.225 10.745,55.325 9.48,55.325 C5.715,55.325 4.645,54.025 4.645,50.655 C4.645,49.81 4.775,48.71 4.935,47.575 L0.91,47.575 C0.23,49.39 -5.68434189e-14,51.045 -5.68434189e-14,52.345 C-5.68434189e-14,57.6 2.885,60.685 8.66,60.685 C11.84,60.685 15.31,59.97 16.935,58.445 C17.455,57.34 17.78,55.915 17.94,54.1 C18.85,54.78 20.015,55.01 21.12,55.01 C23.39,55.01 25.24,54.36 26.44,53.165 C26.205,53.405 30.92,54.84 31.485,54.895 C35.035,55.235 37.15,54.9 39.44,58.45 C40.9,60.715 41.945,63.4 44.165,64.935 C45.07,65.565 46.145,65.975 46.88,66.795 C48.03,68.075 48.06,69.975 48.025,71.695 C47.96,75.015 43.7,75.37 41.59,75.37 C41.015,75.37 40.595,75.345 40.47,75.345 C40.44,75.345 40.43,75.345 40.43,75.35 C40.43,75.35 40.205,79.21 40.205,79.21 L46.325,79.15 C46.255,79.46 46.175,79.765 46.085,80.065 L40.075,88.1 C40.075,88.1 39.915,91.635 39.915,91.635 C39.915,91.62 40.405,91.62 41.09,91.62 C42.455,91.62 44.585,91.635 45.075,91.635 C45.115,91.635 45.145,91.635 45.16,91.635 C45.65,91.63 46.145,91.61 46.635,91.61 C48.495,91.61 50.235,91.875 51.015,94.035 C52.515,98.17 51.125,103.55 52.04,107.95 C53.455,114.78 55.77,120.91 54.605,128.04 C54.105,131.095 53.17,134.63 55.185,136.985 C55.32,137.145 55.48,137.3 55.68,137.355 C55.735,137.37 55.785,137.375 55.84,137.375 C56.06,137.375 56.285,137.265 56.475,137.14 C58.395,135.885 58.685,133.215 58.565,130.925 C58.29,125.645 56.78,120.43 56.88,115.125 C56.955,110.97 59.215,108.46 59.49,104.405 C59.68,101.625 59.26,98.855 59.31,96.075 C59.355,93.57 60.11,90.675 62.985,90.675 C63.23,90.675 63.49,90.695 63.77,90.74 C64.465,90.85 65.145,91.25 65.445,91.885 C65.635,92.29 65.665,92.745 65.68,93.195 C65.735,94.75 65.235,96.3 65.415,97.86 C65.545,99 66.29,99.84 67.065,99.84 C67.6,99.84 68.155,99.435 68.535,98.445 C69.11,96.94 68.225,95.67 68.065,94.215 C67.9,92.72 68.525,91.34 68.68,89.875 C68.825,88.535 68.745,87.18 68.745,85.83 C68.745,84.185 68.745,82.54 68.745,80.895 C68.745,76.52 66.75,74.91 61.86,74.91 C60.025,74.91 57.805,75.265 55.91,75.905 L55.62,79.925 C57.455,79.41 59.675,79.155 61.055,79.155 C63.435,79.155 63.855,79.475 63.855,80.955 L63.855,81.725 C63.47,81.695 62.985,81.66 62.345,81.66 C60.77,81.66 59.065,81.915 57.875,82.37 C56.7,82.815 55.935,83.865 55.12,84.82 C54.07,86.045 52.985,86.68 51.5,87.295 C50.875,87.555 50.04,87.875 49.27,87.875 C48.76,87.875 48.28,87.735 47.91,87.345 C46.47,85.835 49.295,82.67 50,81.465 C53.61,75.245 53.005,67.64 56.36,61.31 C57.235,59.655 58.275,58.05 59.695,56.825 C61.45,55.31 62.9,55.33 64.965,55.05 C65.2,55.02 69.605,54.005 69.055,53.33 C70.03,54.53 71.815,55.245 74.535,55.245 C76.155,55.245 77.81,54.92 79.175,53.785 C80.725,55.01 82.305,55.02 84.525,55.02 C84.535,55.02 84.55,55.02 84.56,55.02 C86.83,55.02 88.68,54.37 89.88,53.17 C91.18,54.435 93.22,55.02 96.11,55.02 C98.9,55.02 102.015,54.665 103.735,53.56 C104.22,52.455 104.35,51.125 104.35,48.175 C104.35,46.295 104.285,44.38 104.155,42.5 L99.385,43.02 C99.545,45.225 99.74,47.53 99.87,49.865 C98.8,50.125 97.63,50.19 96.105,50.19 C93.055,50.19 92.535,49.67 92.535,46.75 L92.535,43.93 L87.995,44.32 L87.995,47.175 C87.995,48.375 87.965,49.155 87.865,49.705 C87.12,50.03 86.015,50.19 84.555,50.19 C81.505,50.19 80.985,49.67 80.985,46.75 L80.985,43.895 L76.38,44.315 L76.38,47.17 C76.38,48.435 76.35,49.375 76.285,50.025 C75.765,50.185 75.245,50.185 74.665,50.185 C72.295,50.185 71.585,49.83 71.585,46.875 L71.585,44.8 L66.98,45.22 L66.98,46.68 C66.98,48.205 66.98,49.21 66.885,49.955 C66.4,50.115 65.91,50.18 64.84,50.18 C63.025,50.18 62.47,49.855 62.47,47.715 L62.47,45.15 C62.47,45.23 58.22,45.59 57.765,45.635 C57.035,45.71 57.085,50.14 57.03,50.7 C56.85,52.61 53.865,63.455 50.615,63.455 C50.22,63.455 49.815,63.295 49.415,62.93 C49.04,62.59 48.92,62.05 48.89,61.54 C48.775,59.45 49.825,57.5 50.59,55.545 C52.71,50.1 50.99,43.43 51.22,37.75 C51.335,34.87 51.605,31.68 53.21,29.19 C54.17,27.705 56.61,25.4 58.715,25.4 C59.48,25.4 60.195,25.705 60.78,26.46 C61.325,27.165 61.39,28.115 61.43,29.005 C61.53,31.115 59.99,37.81 62.465,39.025 C62.79,39.185 63.07,39.255 63.32,39.255 C65.655,39.255 64.905,32.9 64.8,31.605 C64.385,26.595 66.24,22.425 68.675,18.005 C69.945,15.695 71.855,11.705 71.615,8.99 C71.615,8.99 71.29,5.355 71.29,5.355 L62.825,5.355 L62.64,-1.13686838e-13 L62.64,-1.13686838e-13 Z M55.595,107.76 C54.975,107.76 54.35,107.48 54.015,106.955 C53.185,105.665 53.535,103.525 53.6,101.74 C53.62,101.225 53.615,100.74 53.555,100.315 C53.255,98.26 53.19,96.195 53.46,94.13 C53.95,90.35 55.6,85.96 59.615,84.765 C60.165,84.605 61.035,84.405 61.84,84.405 C62.505,84.405 63.135,84.545 63.505,84.96 C64.525,86.09 63.475,87.595 62.515,88.275 C61.63,88.905 60.515,89.015 59.61,89.57 C55.785,91.92 57.69,95.985 57.97,99.57 C58,99.94 58.025,100.345 58.035,100.765 C58.07,102.53 58.36,106.62 56.445,107.565 C56.185,107.7 55.89,107.76 55.595,107.76 L55.595,107.76 Z" id="Shape"></path>
            <path d="M86.445,41.35 C86.235,40.505 86.125,39.525 86.115,38.375 C86.675,38.265 87.47,38.155 88.36,38.155 C88.675,38.155 88.985,38.17 89.275,38.2 L89.19,41.21 L86.445,41.35 Z" id="Path"></path>
            <path d="M88.36,38.405 C88.585,38.405 88.805,38.415 89.02,38.43 L88.95,40.975 L86.645,41.095 C86.485,40.365 86.395,39.54 86.375,38.59 C86.9,38.49 87.595,38.405 88.36,38.405 L88.36,38.405 Z M88.36,37.905 C87.48,37.905 86.605,38.015 85.865,38.17 C85.865,39.37 85.96,40.54 86.255,41.61 L89.435,41.45 L89.53,37.98 C89.15,37.925 88.755,37.905 88.36,37.905 L88.36,37.905 Z" id="Shape"></path>
            <path d="M98.125,60.36 C97.915,59.515 97.805,58.535 97.795,57.385 C98.355,57.275 99.15,57.165 100.04,57.165 C100.36,57.165 100.665,57.18 100.955,57.21 L100.87,60.22 L98.125,60.36 Z" id="Path"></path>
            <path d="M100.04,57.415 C100.265,57.415 100.485,57.425 100.695,57.44 L100.625,59.985 L98.32,60.105 C98.16,59.375 98.07,58.55 98.05,57.6 C98.58,57.5 99.275,57.415 100.04,57.415 L100.04,57.415 Z M100.04,56.915 C99.16,56.915 98.285,57.025 97.545,57.18 C97.545,58.38 97.64,59.55 97.935,60.62 L101.115,60.46 L101.21,56.99 C100.83,56.935 100.435,56.915 100.04,56.915 L100.04,56.915 Z" id="Shape"></path>
            <path d="M12.68,91.735 C11.715,91.735 9.67,91.69 6.67,91.4 L6.67,72.285 C8.915,72.02 11.78,71.925 13.2,71.925 C17.965,71.925 20.38,73.49 20.38,76.575 C20.38,78.52 19.41,80.005 17.645,80.755 L17.495,80.82 L17.495,81.235 L17.675,81.29 C19.755,81.92 20.905,83.48 20.905,85.69 C20.895,89.59 17.98,91.735 12.68,91.735 Z M11.295,88.14 L11.5,88.18 C12.045,88.285 12.325,88.315 13.005,88.315 C13.965,88.315 14.645,88.25 15.09,88.11 L15.14,88.095 L15.18,88.06 C15.865,87.475 16.145,86.81 16.145,85.76 C16.145,83.835 15.25,82.98 13.235,82.98 L11.3,82.98 L11.3,88.14 L11.295,88.14 Z M13.07,75.06 C12.745,75.06 12.13,75.09 11.53,75.125 L11.295,75.14 L11.295,79.78 L12.39,79.78 C13.445,79.78 14.115,79.74 14.55,79.645 L14.595,79.635 L14.635,79.61 C15.39,79.13 15.79,78.36 15.79,77.39 C15.785,75.76 14.97,75.06 13.07,75.06 Z" id="Shape"></path>
            <path d="M13.2,72.18 C17.8,72.18 20.13,73.66 20.13,76.58 C20.13,78.42 19.215,79.82 17.545,80.53 L17.24,80.66 L17.24,80.99 L17.24,81.055 L17.24,81.425 L17.595,81.53 C18.985,81.95 20.645,83.01 20.645,85.69 C20.645,88.335 19.265,91.485 12.68,91.485 C11.745,91.485 9.785,91.445 6.92,91.175 L6.92,72.51 C9.115,72.27 11.83,72.18 13.2,72.18 L13.2,72.18 Z M11.045,80.03 L11.545,80.03 L12.39,80.03 C13.465,80.03 14.15,79.985 14.605,79.89 L14.695,79.87 L14.77,79.82 C15.6,79.29 16.04,78.45 16.04,77.385 C16.04,75.075 14.345,74.81 13.075,74.81 C12.735,74.81 12.095,74.845 11.525,74.875 L11.055,74.9 L11.055,75.375 L11.055,79.53 L11.055,80.03 L11.045,80.03 Z M13.005,88.56 C14.005,88.56 14.69,88.49 15.165,88.345 L15.265,88.315 L15.345,88.25 C16.27,87.455 16.395,86.545 16.395,85.76 C16.395,83.695 15.39,82.73 13.235,82.73 L11.55,82.73 L11.05,82.73 L11.05,83.23 L11.05,87.935 L11.05,88.35 L11.46,88.425 C12.015,88.53 12.3,88.56 13.005,88.56 L13.005,88.56 Z M13.2,71.68 C11.775,71.68 8.755,71.775 6.42,72.07 L6.42,91.63 C10.02,91.985 12.26,91.985 12.68,91.985 C18.165,91.985 21.145,89.745 21.145,85.69 C21.145,83.19 19.78,81.665 17.74,81.05 L17.74,80.985 C19.72,80.14 20.625,78.485 20.625,76.575 C20.63,73.365 18.16,71.68 13.2,71.68 L13.2,71.68 Z M11.545,79.53 L11.545,75.375 C12.13,75.345 12.745,75.31 13.07,75.31 C14.855,75.31 15.535,75.925 15.535,77.385 C15.535,78.23 15.21,78.94 14.495,79.395 C14.04,79.49 13.325,79.525 12.385,79.525 L11.545,79.525 L11.545,79.53 Z M13.005,88.06 C12.325,88.06 12.065,88.03 11.545,87.93 L11.545,83.225 L13.23,83.225 C15.015,83.225 15.89,83.875 15.89,85.755 C15.89,86.63 15.695,87.28 15.015,87.865 C14.495,88.03 13.685,88.06 13.005,88.06 L13.005,88.06 Z" id="Shape"></path>
            <path d="M31.53,91.77 C26.12,91.77 23.375,89.07 23.375,83.75 C23.375,78.4 26.325,75.21 31.27,75.21 C35.69,75.21 37.93,77.34 37.93,81.545 C37.93,82.51 37.93,83.43 37.685,84.605 L27.935,84.605 L27.97,84.885 C28.33,87.705 29.915,88.28 32.175,88.28 C33.62,88.28 34.935,88.205 36.9,87.85 L36.675,90.995 C34.635,91.665 32.585,91.77 31.53,91.77 Z M30.975,78.5 C30.465,78.5 29.505,78.585 28.78,79.135 L28.74,79.165 L28.715,79.21 C28.24,80.045 28.045,81.045 27.97,81.74 L27.94,82.015 L33.515,82.015 L33.5,81.75 C33.395,80.065 33.015,78.5 30.975,78.5 Z" id="Shape"></path>
            <path d="M31.27,75.455 C35.525,75.455 37.68,77.5 37.68,81.54 C37.68,82.44 37.68,83.29 37.48,84.35 L28.22,84.35 L27.65,84.35 L27.72,84.915 C28.125,88.095 30.1,88.53 32.175,88.53 C33.555,88.53 34.815,88.465 36.625,88.15 L36.435,90.805 C34.48,91.425 32.54,91.52 31.525,91.52 C26.28,91.52 23.625,88.905 23.625,83.745 C23.625,78.555 26.48,75.455 31.27,75.455 L31.27,75.455 Z M27.66,82.27 L28.22,82.27 L33.25,82.27 L33.78,82.27 L33.745,81.74 C33.64,80.015 33.225,78.255 30.975,78.255 C30.435,78.255 29.41,78.345 28.63,78.94 L28.55,79 L28.5,79.09 C28.005,79.96 27.805,81 27.725,81.715 L27.66,82.27 L27.66,82.27 Z M31.27,74.955 C26.175,74.955 23.125,78.295 23.125,83.745 C23.125,89.585 26.4,92.02 31.525,92.02 C33.145,92.02 35.125,91.795 36.91,91.175 L37.17,87.54 C35.125,87.93 33.795,88.025 32.175,88.025 C29.84,88.025 28.54,87.375 28.215,84.845 L37.885,84.845 C38.1750082,83.545 38.1750082,82.575 38.1750082,81.535 C38.18,77.325 35.905,74.955 31.27,74.955 L31.27,74.955 Z M28.22,81.77 C28.315,80.895 28.545,80.02 28.935,79.335 C29.615,78.815 30.555,78.75 30.98,78.75 C32.535,78.75 33.12,79.66 33.25,81.765 L28.22,81.765 L28.22,81.77 Z" id="Shape"></path>
            <path d="M76.425,91.605 C75.335,91.605 74.215,91.5 73.38,90.76 C72.69,90.125 72.395,88.93 72.395,86.76 L72.395,69.33 L76.89,68.715 L76.89,86.01 C76.89,86.61 76.925,87.07 76.955,87.52 L76.97,87.735 L79.465,87.925 L79.205,91.345 C78.525,91.48 77.46,91.605 76.425,91.605 Z" id="Path"></path>
            <path d="M76.64,69.005 L76.64,86.015 C76.64,86.615 76.675,87.09 76.705,87.545 L76.735,87.975 L77.165,88.01 L79.2,88.165 L78.975,91.14 C78.305,91.25 77.35,91.355 76.425,91.355 C75.385,91.355 74.32,91.26 73.55,90.58 C72.915,89.995 72.64,88.85 72.64,86.765 L72.64,69.555 L76.64,69.005 L76.64,69.005 Z M77.14,68.435 L72.145,69.115 L72.145,86.765 C72.145,88.84 72.405,90.205 73.215,90.95 C74.09,91.73 75.225,91.86 76.425,91.86 C77.595,91.86 78.795,91.7 79.44,91.57 L79.73,87.71 L77.2,87.515 C77.17,87.06 77.135,86.605 77.135,86.025 L77.135,68.435 L77.14,68.435 Z" id="Shape"></path>
            <path d="M89.435,91.77 C84.025,91.77 81.28,89.07 81.28,83.75 C81.28,78.4 84.23,75.21 89.175,75.21 C93.595,75.21 95.835,77.34 95.835,81.545 C95.835,82.51 95.835,83.43 95.59,84.605 L85.84,84.605 L85.875,84.885 C86.235,87.705 87.815,88.28 90.08,88.28 C91.525,88.28 92.835,88.205 94.805,87.85 L94.58,90.995 C92.545,91.665 90.49,91.77 89.435,91.77 Z M88.885,78.5 C88.375,78.5 87.415,78.585 86.69,79.135 L86.65,79.165 L86.625,79.21 C86.15,80.045 85.96,81.045 85.88,81.74 L85.85,82.015 L91.425,82.015 L91.41,81.75 C91.3,80.065 90.92,78.5 88.885,78.5 Z" id="Shape"></path>
            <path d="M89.175,75.455 C93.43,75.455 95.585,77.5 95.585,81.54 C95.585,82.44 95.585,83.29 95.385,84.35 L86.125,84.35 L85.555,84.35 L85.625,84.915 C86.03,88.095 88.005,88.53 90.08,88.53 C91.46,88.53 92.72,88.465 94.53,88.15 L94.34,90.805 C92.385,91.42 90.445,91.52 89.43,91.52 C84.185,91.52 81.53,88.905 81.53,83.745 C81.535,78.555 84.39,75.455 89.175,75.455 L89.175,75.455 Z M85.565,82.27 L86.125,82.27 L91.155,82.27 L91.685,82.27 L91.65,81.74 C91.545,80.015 91.13,78.255 88.88,78.255 C88.34,78.255 87.315,78.345 86.535,78.94 L86.455,79 L86.405,79.09 C85.91,79.96 85.71,81 85.63,81.715 L85.565,82.27 L85.565,82.27 Z M89.175,74.955 C84.08,74.955 81.03,78.295 81.03,83.745 C81.03,89.585 84.305,92.02 89.43,92.02 C91.05,92.02 93.03,91.795 94.815,91.175 L95.075,87.54 C93.03,87.93 91.7,88.025 90.08,88.025 C87.745,88.025 86.445,87.375 86.12,84.845 L95.79,84.845 C96.0800082,83.545 96.0800082,82.575 96.0800082,81.535 C96.085,77.325 93.815,74.955 89.175,74.955 L89.175,74.955 Z M86.125,81.77 C86.22,80.895 86.45,80.02 86.84,79.335 C87.52,78.815 88.46,78.75 88.885,78.75 C90.44,78.75 91.025,79.66 91.155,81.765 L86.125,81.765 L86.125,81.77 Z" id="Shape"></path>
            <path d="M102.9,91.605 C101.81,91.605 100.69,91.5 99.855,90.76 C99.165,90.125 98.87,88.93 98.87,86.76 L98.87,69.33 L103.365,68.715 L103.365,86.01 C103.365,86.605 103.4,87.07 103.43,87.52 L103.445,87.735 L105.94,87.925 L105.68,91.345 C105,91.48 103.93,91.605 102.9,91.605 Z" id="Path"></path>
            <path d="M103.11,69.005 L103.11,86.015 C103.11,86.615 103.145,87.09 103.175,87.545 L103.205,87.975 L103.635,88.01 L105.67,88.165 L105.445,91.14 C104.775,91.25 103.82,91.355 102.895,91.355 C101.855,91.355 100.79,91.26 100.02,90.58 C99.385,89.995 99.11,88.85 99.11,86.765 L99.11,69.555 L103.11,69.005 L103.11,69.005 Z M103.61,68.435 L98.615,69.115 L98.615,86.765 C98.615,88.84 98.875,90.205 99.685,90.95 C100.56,91.73 101.695,91.86 102.895,91.86 C104.065,91.86 105.265,91.7 105.91,91.57 L106.2,87.71 L103.67,87.515 C103.64,87.06 103.605,86.605 103.605,86.025 L103.605,68.435 L103.61,68.435 Z" id="Shape"></path>
        </g>
    </g>
</svg>