<?xml version="1.0" encoding="UTF-8"?>
<svg width="106px" height="106px" viewBox="0 0 106 106" version="1.1" xmlns="http://www.w3.org/2000/svg" xmlns:xlink="http://www.w3.org/1999/xlink">
    <!-- Generator: Sketch 55.2 (78181) - https://sketchapp.com -->
    <title>logo2</title>
    <desc>Created with Sketch.</desc>
    <g id="Page-1" stroke="none" stroke-width="1" fill="none" fill-rule="evenodd">
        <path d="M94.2033246,85.3191636 C86.0833926,96.1240731 75.2184836,102.224022 62.1335932,104.854 C55.7686465,106.173989 47.7487136,106.188989 40.538774,104.259005 C25.5838993,100.254039 14.8439892,91.4591122 8.47904255,80.739202 C5.18907011,75.3892468 2.69909096,69.7442941 1.3941019,63.1193495 C0.1041127,56.7194032 -0.330883657,49.5344633 1.46410131,41.5045306 C5.22406982,25.0596683 15.468984,14.6047559 25.3689011,8.09981037 C30.5838574,4.66483914 36.5488075,2.44485774 43.1087525,1.16986841 C49.8086964,-0.0651212416 56.6536391,0.039877879 64.2485754,1.85986264 C79.7984452,5.51983198 90.4233562,14.9997526 97.1083002,25.3046663 C100.68327,30.6596214 103.013251,36.1195757 104.26324,42.9395186 C105.633229,49.579463 105.793227,56.979401 103.958243,64.6343369 C101.88826,73.4592629 98.4132893,79.7392103 94.2033246,85.3191636 L94.2033246,85.3191636 Z M103.763244,55.7894109 C104.29824,45.7644949 102.243257,37.4245648 98.0732921,29.7446291 C94.2133245,22.5096897 88.3633735,15.2447505 80.9534355,10.3047919 C72.4835065,4.78983809 62.9035867,2.07986079 53.3336669,1.74986356 C44.1987434,1.39486653 34.4838247,4.26984245 27.7838809,8.17480974 C20.6639405,12.324775 13.7339985,18.3997241 9.13903703,26.4746565 C-0.19088483,42.8695192 1.21910336,55.5044133 3.18908686,64.9693341 C3.85408129,68.1043078 5.22906977,71.5042793 6.40905989,74.054258 C11.3440186,84.7491684 20.4439423,95.1240815 33.1688358,100.264038 C36.4638082,101.579027 40.178777,102.934016 43.7387472,103.529011 C55.0636524,105.333996 64.9935692,103.529011 73.2634999,99.9040415 C82.9884185,95.659077 91.5433468,88.5741363 97.3232984,78.224223 C101.013268,71.6392782 103.243249,63.8743432 103.763244,55.7894109 L103.763244,55.7894109 Z M100.873269,61.6943615 C100.378273,64.0843415 99.7832778,66.4193219 99.0682838,68.2643065 L97.7782946,67.9193093 C97.0233009,66.2043237 96.2333076,64.4643383 95.3883146,62.4943548 C95.0933171,63.8593433 94.74832,65.1943322 94.1633249,66.8293185 C93.6933288,66.7043195 93.428331,66.6343201 93.0483342,66.4593216 C93.7283285,64.1893406 94.1983246,62.4393552 94.623321,60.319373 L95.7733114,60.5443711 L98.4682888,66.6043204 C98.9132851,65.1243328 99.2732821,63.6393452 99.7232783,61.4593635 L100.873269,61.6943615 Z M92.5483384,67.7143111 L97.5582965,72.5192708 C97.1832996,73.6442614 96.7183035,74.5992534 96.2833071,75.4192465 L89.6433627,73.9992584 L90.1683584,72.8442681 L93.5433301,73.6042617 L94.5783214,71.3542806 C93.6883289,70.3942886 92.9283352,69.7592939 92.0883423,68.8843013 L92.5483384,67.7143111 Z M94.633321,73.8242599 L95.6383125,74.0942576 C95.8783105,73.7292607 96.0733089,73.2692645 96.2833071,72.7542688 L95.4733139,72.0342749 L94.633321,73.8242599 Z M89.3083656,74.9942501 L94.9233185,78.0842242 L94.2633241,79.2042148 L89.7133622,76.6892359 C88.9883682,77.7942266 88.418373,78.5792201 87.6433795,79.5992115 C88.4333729,80.3842049 89.1633668,80.8742008 89.9533602,81.6591943 L89.1983665,82.6141863 C88.1583752,81.6841941 87.1983832,80.9941998 85.9483937,79.7942099 C87.0883841,78.2192231 88.2233746,76.6542362 89.3083656,74.9942501 L89.3083656,74.9942501 Z M84.7834035,81.209198 L89.5233638,85.4291627 C88.0283763,87.2691473 86.7933866,88.6641356 85.1234006,90.0941236 L84.4184065,89.2591306 C85.8033949,87.8291426 86.6383879,87.1141486 87.8583777,85.4941621 L87.1183839,84.789168 L83.5784135,88.3841379 L82.7884202,87.5991445 C84.0684094,86.2841555 85.1284006,85.269164 86.1733918,84.0341744 L84.9684019,82.9191837 C83.8934109,83.9991747 82.8334198,85.0191661 81.4534313,86.1591566 L80.7184375,85.1691649 C82.2334248,83.7741765 83.4434147,82.7291853 84.7834035,81.209198 L84.7834035,81.209198 Z M79.2684496,86.2941554 L83.1134174,91.4391123 L82.1534255,92.3341049 L78.9284525,91.5441115 L78.5834554,94.699085 C78.2134585,95.0290823 77.788462,95.2790802 77.3834654,95.4590787 L73.5884972,90.1141234 L74.6234886,89.454129 L77.3984653,93.514095 L77.8784613,90.1091235 L81.0734345,90.7491181 L78.3384574,87.059149 L79.2684496,86.2941554 Z M72.7935039,95.2340806 C72.3185079,95.3940792 71.8835115,95.419079 71.5935139,94.9140832 C71.5685141,93.394096 73.4884981,93.9790911 72.7935039,95.2340806 L72.7935039,95.2340806 Z M72.2385085,88.2341392 C69.8535285,87.5241451 67.3635494,86.9291501 65.2285672,86.3591549 C64.9635695,87.0791489 64.7985708,87.6841438 64.7035716,88.3091386 L69.4435319,89.5791279 C61.5835978,93.8140925 52.3086755,94.5040867 43.2587513,92.2241058 C33.3888339,89.7941261 24.7389064,83.8691758 20.1039452,76.3542387 L25.1789027,77.7142273 C25.4239006,77.0592328 25.5888992,76.4542379 25.6988983,75.7642436 L18.3539598,73.7942601 L18.4639589,73.3942635 L22.6689237,74.5192541 C37.0138036,73.6042617 58.2386258,79.5792117 68.5435395,86.8091511 L72.3485076,87.8291426 C72.4135071,87.8491424 72.3235078,88.1841396 72.2385085,88.2341392 L72.2385085,88.2341392 Z M66.9385529,86.3791547 C55.0986521,79.0192164 38.5537907,74.8042517 24.1439114,74.9092508 L25.9438963,75.3942467 C25.9438963,75.3942467 34.9888205,75.2892476 46.2037266,78.2942224 C53.4136662,80.2242063 57.5686314,81.5541951 65.3335664,85.9441584 L66.9385529,86.3791547 Z M68.1585427,93.8490922 L68.9235363,95.784076 L68.3235413,96.4140707 L67.9085448,95.2940801 C67.7785459,94.9690828 67.5435478,95.0540821 67.3085498,95.1340814 L66.1285597,95.539078 L65.6485637,94.1140899 L67.3885491,93.4990951 C67.8635452,93.3340965 68.0285438,93.5190949 68.1585427,93.8490922 L68.1585427,93.8490922 Z M64.2435755,95.899075 L65.4185656,100.324038 L64.3485746,101.119031 L63.4835819,97.1390646 C63.3135833,96.4440704 62.9435864,96.4890701 62.4185908,96.5690694 C60.3136084,96.9390663 58.7786213,97.3190631 55.2686507,97.6090607 L55.113652,96.0490737 C58.1236267,95.774076 60.7636046,95.2540804 62.3635912,94.8940834 C63.3635829,94.6540854 63.9635778,94.8140841 64.2435755,95.899075 L64.2435755,95.899075 Z M53.0336694,97.1440646 L53.0086696,102.044024 L51.9136788,102.399021 C51.998678,100.474037 52.0936773,99.8490419 52.1436768,98.3490545 C52.1536768,97.7690593 51.9536784,97.7190598 51.5386819,97.6790601 L50.0436944,97.6390604 L50.1736933,96.0890734 L52.1686766,96.1190732 C52.7286719,96.1290731 53.0336694,96.3540712 53.0336694,97.1440646 L53.0336694,97.1440646 Z M47.9087123,96.7840676 C47.5287155,98.1990557 47.3237172,99.2240471 47.0287197,99.7940424 C45.7387305,100.604036 45.1637353,100.879033 43.4787494,101.29403 C41.4687662,101.049032 38.63379,100.144039 36.7538057,99.4240455 L38.1237943,95.1040817 L37.3388008,94.824084 L37.8037969,93.3590963 C38.7887887,93.6940935 39.9687788,94.0840902 40.4387749,94.2090891 L40.1087776,95.7090766 L39.3737838,95.5140782 C39.0387866,95.419079 38.9187876,95.6040775 38.8637881,95.8090757 L38.0937945,98.4140539 C39.4587831,98.9240497 39.7487806,98.9290496 40.9087709,97.7990591 L42.3787586,96.3190715 L41.2437681,96.014074 L41.6437648,94.5340864 C42.7787553,94.8390839 43.4437497,95.0190824 44.3987417,95.2040808 L44.0687445,96.6990683 L43.6687478,96.5940692 C43.1337523,96.4540703 42.9487538,96.614069 42.7237557,96.9190665 C42.0737612,97.7540595 41.4187667,98.5890525 40.9187708,99.3890458 L42.3237591,99.7640426 C43.3937501,100.04904 44.5437405,100.284038 46.148727,99.6340437 C46.3237256,99.2490469 46.5937233,98.2340554 46.8337213,97.3640627 L45.2937342,96.9540662 L45.6237314,95.4590787 L47.3787167,95.8540754 C47.9037123,95.9940742 48.0487111,96.2440721 47.9087123,96.7840676 L47.9087123,96.7840676 Z M35.1588191,93.874092 L34.3188261,95.6690769 L29.5938657,94.3340881 C29.3288679,94.2590887 28.9738709,94.2390889 28.8188722,94.5590862 L29.6138655,95.059082 L29.0088706,95.9790743 C28.3788759,95.664077 28.0138789,95.419079 27.533883,95.0790819 L28.1338779,94.1590896 C28.7388729,93.2390973 29.6438653,93.3390964 30.5288579,93.5040951 C31.6138488,93.7240932 33.7888306,94.1590896 33.7888306,94.1590896 C34.1388276,93.389096 34.3238261,93.509095 33.373834,93.0390989 C32.0488451,92.3941044 29.8538635,91.2291141 27.643882,89.8441257 L28.4038757,88.6091361 L27.7938808,88.2291392 L28.4988749,87.1941479 L29.5938657,87.9191418 C29.7738642,88.0391408 29.9388628,88.2291392 29.6988648,88.5941362 L29.318868,89.214131 C31.0488535,90.2541223 31.8588467,90.6891186 34.4988246,92.0441073 C35.3888172,92.4941035 35.6838147,92.7141017 35.1588191,93.874092 L35.1588191,93.874092 Z M25.2189023,90.1241234 L23.1939193,92.3241049 C19.6389491,89.569128 17.7589648,87.7691431 15.1639866,84.6191695 L16.9839713,83.1641817 C17.7139652,82.5691866 17.8239643,82.4491876 19.4439507,82.524187 C19.048954,82.1291903 18.7239567,81.7541935 18.458959,81.3941965 L19.7839479,80.4492044 C21.438934,82.5491868 23.4989168,84.4741707 25.2989017,86.0391576 C27.1088865,87.6041445 26.9788876,88.0791405 25.2189023,90.1241234 L25.2189023,90.1241234 Z M24.4139091,87.2441475 L20.1439449,83.1441818 C18.9889545,83.1941814 18.6139577,83.244181 18.0539624,83.7391768 L17.1839696,84.5891697 C19.1889529,86.9991495 20.603941,88.3891379 23.1539196,90.3691213 L24.5589079,88.8691339 C25.1689028,88.1691397 25.0389039,87.8441425 24.4139091,87.2441475 L24.4139091,87.2441475 Z M69.9335278,30.8646197 C70.0685267,30.8996194 69.9335278,30.8646197 70.0485269,30.9696188 C70.4485235,31.0796179 70.1685259,30.7846204 70.5235229,30.8096202 C70.6135221,31.2646164 70.1935257,31.2246167 69.9585276,31.304616 L69.7185296,30.589622 C70.0235271,30.5296225 70.4235237,30.6346216 70.5735225,30.6046219 C70.5685225,30.8896195 70.0235271,30.5296225 69.9335278,30.8646197 L69.9335278,30.8646197 Z M70.4985231,41.8295279 C71.5535143,42.1845249 72.4285069,41.8445277 73.3484992,41.0795341 C72.9135029,41.9045272 71.228517,43.1095171 69.5685309,43.1695166 C68.6285388,43.2045163 69.4735317,43.7895114 70.393524,43.8195112 C72.3885073,43.8495109 73.3084996,43.0895173 74.7884872,41.3195321 C71.6935131,46.9794847 64.538573,45.639496 63.9335781,45.7644949 C63.4785819,45.8594941 63.2685837,46.3794898 64.0285773,47.0144844 C63.5635812,46.8894855 63.0335856,46.4594891 63.0085858,46.0194928 C63.0335856,44.8695024 65.018569,45.4794973 66.3235581,45.394498 C66.8585536,44.7445034 67.2235505,44.6995038 68.0485436,43.7645117 C69.1785342,42.4795224 69.1185347,41.3795316 69.3035331,40.4195397 C69.6685301,38.7895533 71.2435169,38.7745535 73.2335002,37.5045641 C72.8235036,38.7645535 72.4385069,39.3845483 71.8785115,39.8845442 C71.5235145,40.1495419 72.2385085,40.4145397 73.3284994,39.549547 C72.5485059,40.854536 71.7185129,41.2795325 70.6085222,41.4195313 C69.9535277,41.4695309 70.3035247,41.7795283 70.4985231,41.8295279 L70.4985231,41.8295279 Z M48.7687051,25.1896672 C48.8587043,24.85467 48.2037098,24.8946697 48.3387087,24.6446718 C48.4587077,24.7496709 48.8587043,24.85467 49.0887024,25.0646683 L48.5287071,25.5596641 C48.3637085,25.3696657 47.9787117,25.1996671 48.2887091,24.8446701 C48.6037065,24.9996688 48.2137097,25.1146679 48.6137064,25.219667 C48.7687051,25.1896672 48.6337062,25.1546675 48.7687051,25.1896672 L48.7687051,25.1896672 Z M17.4689673,68.2943062 C17.0289709,69.3992969 16.7739731,70.344289 16.5589749,71.1542822 C14.038996,65.0693332 11.7990147,58.1993908 12.5840082,50.1844579 L32.2188437,55.4444138 L32.6488401,53.8294274 L12.6890073,48.4794722 C12.6990072,46.0344926 13.2390027,43.2195162 14.2139945,40.37954 C15.9389801,34.9995851 18.9239551,29.7446291 23.1889193,25.0446684 C30.8588551,16.7147382 41.258768,12.3597747 52.7336719,12.2647755 C43.2387514,14.0497605 34.5338243,19.2897166 30.1788608,29.9446274 C28.3838758,34.2245916 28.0688785,37.8195614 28.5338746,40.6095381 C29.6988648,41.0645343 29.4938665,40.2195413 29.5288662,39.2895491 C29.5988657,38.2245581 29.7588643,36.8295697 30.1488611,35.6345797 C30.2038606,35.4345814 30.3388595,35.4695811 30.2838599,35.6695795 C29.7288646,39.3445487 29.9088631,41.339532 31.7338478,41.4645309 C31.4188504,40.2295413 31.0188538,39.3245488 31.3738508,37.4745643 C31.3888507,37.4045649 31.5238495,37.4445646 31.5088497,37.509564 C31.6438485,41.0045348 31.8988464,41.6495294 33.5388327,41.9445269 C33.1538359,40.979535 32.7288394,40.4295396 32.5638408,39.4495478 C32.5988405,39.3145489 32.6988397,39.4795475 32.6988397,39.4795475 C33.1838356,40.3345404 33.7738307,42.1495252 35.408817,42.4445227 C34.8988213,41.9495269 34.6338235,41.5895299 34.4988246,40.7595368 C34.4688249,40.6095381 34.3838256,39.8645443 34.5088245,40.1845416 C34.8938213,41.1495336 35.6538149,42.8695192 37.7437974,43.0695175 C36.4938079,40.7895366 35.4588166,39.5745467 35.1538191,36.9695686 C36.1588107,39.6195464 36.8988045,40.6095381 38.5587906,42.4245229 C39.4287833,43.4495143 40.9787703,44.084509 41.8137634,44.1595083 C39.7387807,42.0195263 38.2637931,40.3245405 38.1887937,39.0045515 C38.1637939,38.5645552 38.2887929,38.8895525 38.2887929,38.8895525 C38.9537873,40.1495419 41.4887661,44.5745049 49.0787025,45.8844939 C47.2887175,44.5445051 44.2037433,44.5795048 41.2937677,39.6895458 C42.933754,40.7745367 47.0337196,43.1045172 47.3387171,41.9595268 C47.4487162,41.5545302 45.9687286,40.9445353 44.6787394,39.8745442 C41.8037634,37.519564 40.4537747,35.3495821 39.8737796,32.1696088 C39.7687805,31.4946144 40.0237783,32.139609 40.0237783,32.139609 C40.423775,33.3295991 41.6287649,36.0345764 43.2337515,36.4595728 C43.9687453,36.6545712 42.9937535,35.7445788 42.5987568,34.5595888 C43.6337481,35.7745786 43.8937459,35.3345823 43.4887493,34.7195874 C42.933754,33.8545947 42.8287549,33.1746004 42.8287549,32.0946094 C43.168752,31.8946111 43.7737469,30.9796187 43.7287473,30.6046219 C44.1387439,32.0096101 45.6087316,32.4046068 45.3787335,34.0745928 C45.2937342,34.9145858 44.9387372,35.1845835 44.7137391,36.2745744 C44.4137416,37.9295605 45.4937325,38.4295563 45.6537312,39.9895433 C46.7587219,40.9345354 47.8537128,41.6595293 47.3887167,42.3295237 C47.0787193,42.6795207 46.5487237,42.534522 45.9487287,42.3745233 C45.7687302,43.844511 47.4387162,44.2895073 48.3837083,44.7595033 C49.5386987,39.659546 49.6636976,36.5195723 46.5337238,34.3095908 C46.4337247,34.1395923 46.6687227,34.0595929 46.6687227,34.0595929 C48.5887066,35.4395814 48.5187072,35.7095791 49.0837025,36.79957 C49.5736984,35.7745786 49.2837008,34.1845919 49.4336995,33.3595988 C49.0087031,33.6045968 48.8037048,33.8395948 48.3637085,33.8695945 C46.8187214,33.2395998 45.9587286,31.6346133 44.5887401,30.3346241 C44.5887401,30.3346241 44.6437397,30.1296259 44.7087391,30.1496257 C46.0487279,31.2996161 46.8937208,32.6796045 48.4737076,33.4645979 C49.0487028,33.1846003 49.4086997,32.9196025 49.5836983,32.5346057 C49.738697,32.2196084 49.8836958,30.8846195 49.9686951,30.83462 C49.9836949,30.7696205 50.1286937,31.0246184 49.8886957,32.4696063 C50.2436927,32.494606 50.6586893,30.6596214 50.7136888,29.6646298 C50.7536885,29.2446333 50.208693,28.8796363 49.8936957,28.43964 C49.4686992,27.8946446 48.9337037,28.0346434 48.058711,28.0896429 C47.9087123,28.1196427 48.0037115,28.2946412 48.2037098,28.3446408 C48.538707,28.4346401 48.8237046,28.43964 48.8037048,28.5046395 C48.7337054,28.7746372 47.5737151,28.8246368 47.8687126,29.0446349 C48.0487111,29.1696339 48.5737067,29.0896346 48.9887033,29.1296342 C49.2187013,29.3396325 48.0237113,29.8096285 48.418708,29.9146277 C48.6187064,29.9696272 48.9437036,29.5496307 49.5636984,29.6446299 C49.5986981,29.7996286 48.9587035,29.7696289 48.8537044,29.8846279 C48.7537052,30.0046269 48.8637043,30.1046261 49.018703,30.0746263 C49.4736992,29.9796271 49.8736958,30.3746238 50.3086922,30.3446241 C49.7836966,30.709621 49.5586985,30.2196251 49.1187022,30.2446249 C48.898704,30.2596248 48.6787059,30.2696247 48.6687059,30.0496265 C48.4987074,30.1496257 48.3487086,30.1796254 48.1637102,30.0596264 C47.9837117,29.9396274 48.2037098,29.63463 48.7987049,29.2896329 C48.3437087,29.3846321 47.8537128,29.3296326 47.6737143,29.2046336 C47.3787167,28.9796355 47.7187139,28.7846371 48.4937074,28.559639 C47.5037157,28.5146394 47.6487145,27.9746439 48.1737101,27.8946446 C48.0787109,27.4396484 47.4287163,27.1896505 47.7237139,26.6196553 C47.5587152,26.4346568 47.5037157,26.6346551 47.3237172,26.5096562 C47.1187189,26.7446542 47.6537144,26.889653 47.2837175,26.9296527 C47.0637194,26.9446525 46.9687202,26.4846564 47.0287197,26.2846581 C47.2487178,26.2696582 47.9937116,26.6846547 48.2187097,26.3846572 C48.1037107,26.2796581 47.5387154,25.9896605 48.0137114,25.8246619 C48.0737109,26.1296594 48.2387095,26.3146578 48.4887074,26.4546566 C48.6537061,25.8496617 48.9637035,25.4946647 49.4036998,25.1846673 C48.9637035,24.4146737 47.9637118,24.1496759 47.0687193,24.5596725 C46.9237206,25.094668 47.4187164,25.6596633 47.2787176,25.9146612 C47.1487187,25.5896639 46.7987216,25.2846664 46.8087215,24.7096713 C46.2887259,24.7846706 46.038728,25.7296627 46.0887275,26.6096553 C47.0037199,26.9296527 47.103719,27.8946446 47.0487195,28.8896362 C47.6337146,29.1196343 47.708714,29.63963 47.708714,29.63963 C47.6237147,29.6896295 47.1587186,29.279633 46.8087215,29.2596331 C46.9587203,27.6396467 46.3687252,26.9046529 45.1137357,26.7846539 C45.0637361,26.6946546 44.8887376,26.289658 45.6887309,26.5046562 C45.7687302,25.9496609 46.0137282,25.2946664 46.3187256,24.9446693 C45.6637311,24.9846689 45.1787352,24.9296694 44.8487379,24.8346702 C44.5287406,25.7596625 42.9187541,27.489648 43.0687528,26.6646549 C43.8587462,21.3246996 46.7787218,18.4297239 50.4586909,17.2547337 C50.6786891,17.2397338 51.1286853,17.1447346 50.4886907,17.4047324 C46.9687202,19.0597186 44.8187382,21.7246963 43.8737461,25.7996621 C44.6687394,24.7146712 44.6087399,24.1196762 45.078736,23.1646842 C45.433733,23.189684 45.6687311,23.1046847 46.1337272,23.2296836 C46.5537237,22.4796899 46.9837201,21.6596968 48.2437095,21.7796958 C49.6336979,21.9346945 50.1386936,22.7196879 50.3486919,23.2796832 C52.1786765,19.6547136 55.5186486,19.4697151 58.9386199,17.934728 C60.0736104,17.4447321 61.0136025,16.3297414 59.3286167,15.6597471 C61.0036026,14.229759 59.0936186,13.0697687 58.0136277,12.564773 C61.1786012,12.7647755 65.2685669,13.7847628 68.2285421,15.2997501 C67.0385521,15.1997509 64.8085708,15.2497505 65.5385646,17.3197331 C63.7485796,17.0597353 64.0035775,18.4997233 64.7435713,19.484715 C66.213559,21.4696984 68.1535427,22.7796874 69.0135355,25.1746674 C69.4285321,26.294658 69.5485311,27.1896505 69.4435319,28.3896404 C69.9685275,28.0296434 70.9135196,27.7046462 72.0785099,28.1596424 C73.2285002,28.684638 73.1885006,29.6096302 73.1735007,30.474623 C73.6434968,30.5996219 73.8034954,30.7896203 74.1234927,30.944619 C74.0534933,32.0096101 73.7084962,32.494606 73.853495,33.8295949 C75.0684848,29.8246284 74.5434892,26.4446567 72.3235078,23.2496835 C71.8985114,22.6996881 72.2435085,23.0146854 72.423507,23.1296845 C75.0234852,25.9896605 76.1084761,29.9596273 74.1184928,34.9795852 C73.8334952,35.7695786 73.3084996,33.4645979 73.493498,32.504606 C73.1585008,32.4146067 72.7085046,32.2246083 72.1635092,31.8596114 C72.2535084,32.3196075 72.1435093,33.0096017 71.9285111,33.5295974 C72.7285044,33.7445956 72.3735074,34.0095934 72.2885081,34.0595929 C71.1435177,33.5345973 70.2635251,33.8795944 69.5835308,35.3545821 C69.2685334,35.1945834 68.6635385,35.3245823 68.6135389,35.2345831 C68.6135389,35.2345831 68.9435361,34.8195866 69.558531,34.9145858 C70.0135272,34.0245932 70.5785224,33.2345999 71.5335144,33.4195983 C72.0135104,32.6846045 72.2685083,31.7446123 71.8535118,31.4146151 C71.5735141,31.9146109 71.1235179,32.0146101 70.8485202,32.2296083 C70.8535201,31.9446107 71.5635142,31.6996127 71.708513,31.1596172 C71.1385177,30.3596239 70.4185238,30.0946262 69.3685326,30.5346225 C69.4885316,31.1446174 69.6885299,31.4896145 69.5235313,32.0896094 C69.8085289,32.0896094 70.0435269,32.0146101 70.2535252,31.779612 C70.5785224,32.1546089 69.9435277,32.1346091 69.793529,32.1646088 C69.8335287,32.5346057 70.6935215,32.5496056 70.87352,32.6696046 C70.8185204,32.8696029 70.513523,33.2196 70.3285245,33.099601 C70.028527,32.8746029 70.5635226,33.0196017 70.5035231,32.7146042 C70.2835249,32.7296041 70.3385244,32.5296058 70.0985265,32.6096051 C70.0735267,33.2495997 69.3835324,33.1396006 69.078535,33.4895977 C69.4885316,33.819595 69.3485327,34.3545905 68.4685401,33.9045942 C69.0285354,34.4845894 69.2235338,34.8295865 68.8535369,34.8695862 C68.6335387,34.8795861 68.1885424,34.6895877 67.8385454,34.3845902 C68.1835425,34.9795852 68.2235422,35.3495821 68.008544,35.364582 C67.7885458,35.3745819 67.6685468,35.2745828 67.5735476,35.1045842 C67.4535486,35.2895826 67.2685502,35.1695836 67.0935516,35.0445847 C66.7285547,34.8045867 66.2835584,35.1195841 66.0135607,34.5395889 C66.3735576,34.7795869 66.9185531,34.6395881 67.2635502,34.9495855 C67.3785492,35.0495846 67.528548,35.0195849 67.5035482,34.8645862 C67.4735484,34.7145875 66.9085532,34.41459 67.0135523,34.2995909 C67.5935474,34.529589 67.6685468,35.0545846 67.8685451,35.1045842 C68.2735417,35.2145833 67.4685485,34.2045917 67.768546,34.1395923 C68.1485428,34.3145908 68.5635393,34.6395881 68.7785375,34.6295882 C69.1485344,34.5845885 68.1735426,33.9595938 68.243542,33.689596 C68.2635418,33.6195966 68.5085398,33.7645954 68.843537,33.8495947 C69.0435353,33.9045942 69.2135339,33.8045951 69.0985348,33.7045959 C68.3735409,33.2196 67.9735442,32.8246033 67.3335496,33.0896011 C66.8435537,33.3195991 66.1885592,33.3595988 66.0135607,33.7445956 C65.5635644,34.6345881 65.0035691,36.4295731 65.3235664,36.5895718 C65.8335622,35.2145833 66.08856,35.0645845 66.0685602,35.1345839 C66.1185598,35.2195832 65.5785643,36.444573 65.5485646,36.79957 C65.5085649,37.2195665 65.6835634,37.629563 66.0435604,38.1595586 C67.8035457,38.2695577 69.2235338,37.4945642 70.9585192,37.1695669 C71.0235187,37.1845668 70.9735191,37.3895651 70.9735191,37.3895651 C69.1335345,37.8345613 67.5885475,38.7945533 65.9335613,38.5645552 L65.6535637,38.2745576 C64.9685694,38.9595519 64.7885709,39.6295463 64.4435738,40.9095356 C65.0085691,40.4145397 65.5185648,40.1145422 66.3635577,39.6245463 L66.4135573,39.7095456 C63.6885801,41.8645276 62.2835919,44.1545084 60.8736037,48.1044753 C64.178576,48.8444691 65.9235614,47.9444766 64.3285748,47.2294826 C64.1935759,47.1944829 64.2285756,47.0594841 64.3635745,47.0944838 C67.3835492,48.1194752 71.0585184,47.2294826 73.5884972,45.5294969 C73.3334994,46.474489 71.103518,48.1094753 67.9885441,48.7894696 C67.0785517,48.974468 66.0535603,49.0644673 64.9835693,49.0644673 C60.9236033,48.9894679 59.7086135,47.6494791 59.0686188,48.7044703 C65.3485662,50.8944519 69.3485327,50.6644539 72.9935022,48.5444716 C73.0785015,48.494472 73.3534992,48.2794738 73.0435018,48.6294709 C71.3785157,50.5594547 68.5735392,50.8944519 67.1935508,50.9544514 C68.7585377,51.5194467 70.2285254,51.9094434 73.7584958,50.764453 C73.7584958,50.764453 73.9084945,50.7294533 73.7234961,50.8944519 C72.8885031,51.6094459 71.9985105,51.7344449 71.0035189,51.9694429 C71.9535109,52.439439 74.1584924,52.7444364 76.4184735,50.174458 C76.83347,49.7094619 76.6584715,50.0944586 76.6584715,50.0944586 C76.0484766,51.2994485 75.3634824,51.9844428 73.4734982,52.6294374 C74.7684873,53.4094309 76.478473,52.3544397 77.4184651,51.5244467 L76.7484708,52.4294391 L75.6084803,53.2044326 C76.9834688,53.9344265 78.2984578,53.8544271 79.698446,52.3544397 C78.9734521,53.4594305 78.1684589,54.3244232 79.8134451,54.3344231 C81.2934327,52.2794403 82.4234232,49.4144643 83.1184174,46.2794906 C85.548397,34.8145866 80.8834361,23.899678 73.1135012,17.9247281 C74.0634932,18.3947241 74.9734856,18.9997191 75.7984787,19.6547136 C81.5434306,23.8596784 85.7433954,29.0246351 88.7483702,34.8795861 C92.2633408,41.8045281 94.1083254,49.8744605 92.7833364,58.8193856 C92.1583417,62.7643525 91.1983497,65.5343293 89.8083614,69.1242993 C83.4834143,67.359314 75.7184794,65.3493309 70.3085247,63.899343 L69.8785283,65.5143295 C78.1384591,67.7993103 84.0984092,69.3242976 89.0383678,70.6492865 C85.6533962,77.6742276 81.1734337,82.3891881 75.6834797,86.0341576 C75.8684781,85.3641632 76.0134769,84.8241678 76.1434758,84.0641741 C54.7936546,78.2942224 38.0487949,74.0242582 17.4689673,68.2943062 L17.4689673,68.2943062 Z M73.023502,66.8793181 L72.9285027,67.5043128 L88.0883758,71.5642788 C88.2033748,71.3792804 88.3083739,71.2642813 88.3833733,70.9942836 L73.023502,66.8793181 Z M67.7385462,64.9593341 L68.1735426,63.3443477 C56.7036386,60.199374 46.4737243,57.5293964 34.8738215,54.349423 C34.6738232,55.0844168 34.5638241,55.4944134 34.3538258,56.0144091 L67.7385462,64.9593341 Z M51.1886848,61.0293671 C49.9286954,65.7393276 49.1837016,68.7843021 47.7237139,74.2342565 C52.4636742,75.5042458 55.7136469,76.4492379 60.1436098,77.5642286 L63.6785802,64.379339 L51.1886848,61.0293671 Z M38.033795,57.5043966 C36.6088069,62.8193521 35.7088145,66.1843239 34.6338235,70.7292858 C39.2037852,72.0942744 42.2287599,72.8342682 46.9187206,74.0242582 L50.453691,60.8343687 C45.5637319,59.5943791 42.3737587,58.6693868 38.033795,57.5043966 L38.033795,57.5043966 Z M27.4437732,44.1395085 C27.4388838,44.4295061 27.6038824,44.6145045 27.8688802,44.6895039 L77.8834612,58.0893917 C78.1434591,58.164391 78.4134568,58.2293905 78.6534548,57.8643936 L27.4437732,44.1395085 Z M78.7784537,57.6793951 L79.0034519,57.3793976 C59.1086185,52.0494423 43.8737461,47.7494783 27.3888842,43.5495135 L27.4338838,43.9245103 L78.7784537,57.6793951 Z M51.8736791,58.4743885 L64.3585745,61.8193604 L65.3335664,58.1893908 C64.7485713,56.0844085 62.2835919,54.344423 59.6786137,53.6444289 C56.8086378,52.8744354 54.7336551,53.4044309 52.8836706,54.70942 L51.8736791,58.4743885 Z M57.1136352,52.8094359 L49.6336979,50.8044527 C51.4236829,52.1494414 52.1736766,53.0744337 52.7436718,53.8794269 C54.268659,53.274432 54.8636541,52.9294349 57.1136352,52.8094359 L57.1136352,52.8094359 Z M46.5937233,50.1344583 C43.768747,49.449464 41.2737679,50.2244575 39.5737821,51.4994469 L38.6537898,54.9344181 L51.1386853,58.2793901 L52.1486768,54.5094217 C51.1986847,52.4494389 49.2987007,50.7194534 46.5937233,50.1344583 L46.5937233,50.1344583 Z M61.913595,73.3492639 C64.0485771,73.924259 71.8785115,75.9492421 71.8785115,75.9492421 L71.7235128,75.4742461 C66.3835576,74.044258 65.0435688,73.6842611 62.0235941,72.9492672 L61.913595,73.3492639 Z M61.6435973,74.3592554 C65.6285639,75.5042458 68.6335387,76.3042391 72.2585084,77.2042316 L72.0185104,76.4892376 C67.5485478,75.2892476 64.9585695,74.524254 61.8085959,73.7542605 L61.6435973,74.3592554 Z M69.7485294,66.0043254 C69.5385311,66.524321 69.3835324,66.8443183 69.1735342,67.0793164 C68.6485386,67.1543158 68.118543,67.009317 67.4985482,66.6293201 C67.4935483,66.1243244 67.4985482,65.8343268 67.6085473,65.4293302 L64.2685753,64.5343377 L62.1335932,72.5442706 C65.5335647,73.454263 68.0535436,74.2042567 71.348516,75.0142499 L72.6235053,66.7743189 L69.7485294,66.0043254 Z M68.0335437,66.2693232 C68.2635418,66.4743214 68.7985373,66.6143203 69.0335354,66.5343209 C69.6235304,65.6843281 69.9435277,63.6793449 70.0235271,62.8343519 C69.6435303,62.6593534 69.2435336,62.5543543 68.953536,62.5493543 C68.5285396,63.3693475 67.8435453,65.6393284 68.0335437,66.2693232 L68.0335437,66.2693232 Z M72.9735024,64.1293411 L73.4634983,61.2343653 L65.7185631,59.1593827 L64.9635695,61.9843591 L68.3685409,62.8943514 L68.7535377,61.989359 C69.1735342,62.0293587 69.9935273,62.1743575 70.4885232,62.4543551 L70.3685242,63.429347 L72.9735024,64.1293411 Z M76.3384742,57.9643927 L62.6535888,54.2944235 C64.3835743,55.3344148 65.2985667,56.4444055 66.4685569,58.4893883 L75.5484808,60.9243679 L76.3384742,57.9643927 Z M79.5984469,65.0393335 L77.4284651,58.9793842 L77.0284684,58.8693851 L78.7984536,64.8293352 L79.5984469,65.0393335 Z M88.543372,67.4343134 L81.5684304,53.6694287 L81.4134317,53.989426 L87.343382,67.1143161 L88.543372,67.4343134 Z M91.7783449,54.3094233 L84.2734077,46.5294885 L84.1634086,46.9344851 L91.7533451,55.4544137 L91.7783449,54.3094233 Z M86.268391,32.139609 L85.433398,30.9796187 C84.4184065,30.4946228 83.638413,30.2096252 82.80342,29.8446282 L83.1284173,30.5046227 C84.5734052,31.2496165 85.4033983,31.6196134 86.268391,32.139609 L86.268391,32.139609 Z M91.0833507,43.8095113 L90.7683533,42.5745216 L84.7434038,38.3645569 L84.7484037,38.8695527 L91.0833507,43.8095113 Z M62.7435881,42.9995181 C61.0036026,43.9045105 59.1286183,44.4845056 56.6986387,44.4795057 C56.6986387,44.4795057 57.7886296,45.9994929 55.4036495,45.5744965 C56.1136436,46.1244919 57.2336342,46.2094912 58.2836254,45.7694949 C58.2636256,46.1244919 57.4886321,46.34949 57.9036286,46.3894897 C59.2736171,46.6144878 60.1736096,46.2044912 61.0486022,45.8644941 C59.7236133,46.8044862 58.4236242,47.1094836 56.8486374,47.1194836 C57.7936295,47.5894796 58.1836262,47.4794805 58.8786204,48.0944754 C59.1986177,47.9644765 59.5036152,47.904477 60.3386082,47.9794764 C60.9036035,46.3994896 61.6435973,44.7195037 62.7435881,42.9995181 L62.7435881,42.9995181 Z M59.5436149,41.0595343 L60.0436149,41.0495344 L60.7536047,32.7996035 L60.5336066,32.8096034 L59.5436149,41.0595343 Z M60.9786028,39.7145456 C59.9136118,39.9345437 61.558598,41.0245346 63.1385847,40.7245371 C62.4135908,41.8245279 61.1236016,41.5545302 59.7586131,41.8395278 C58.6136226,42.1045256 61.5235983,42.7445202 62.7935876,42.0045264 C62.5035901,42.2845241 61.6885969,42.9345186 62.273592,42.8745191 C63.7585796,42.409523 63.7985792,41.1945332 64.3985742,39.7645452 C64.7135716,38.8395529 64.9435696,38.5445554 65.3535662,38.0745593 L65.3085666,37.99456 C63.6735803,39.2795492 62.5285899,39.549547 60.9786028,39.7145456 L60.9786028,39.7145456 Z M64.1685761,37.6845626 L64.658572,37.4545645 L63.7935793,32.6746045 L63.5735811,32.6896044 C63.7135799,34.3145908 63.948578,36.1095758 64.1685761,37.6845626 L64.1685761,37.6845626 Z M67.28355,32.7496039 L66.7985541,31.6146134 L66.5635561,31.6946127 L66.8885533,32.8696029 C66.8935533,32.864603 67.0635561,32.7596038 67.28355,32.7496039 L67.28355,32.7496039 Z M73.5484976,32.3346074 L73.5534975,32.0496098 C72.9735024,31.8196117 72.4285069,31.4546148 72.2235087,30.6096218 C71.8885115,30.5196226 71.6885131,30.4646231 71.3385161,30.4446232 C72.3785074,31.0846179 71.9635108,31.8396115 73.5484976,32.3346074 L73.5484976,32.3346074 Z M72.4385069,30.594622 C72.5785057,31.1396174 73.0385018,31.5546139 73.6234969,31.779612 L73.738496,31.0896178 C73.3234994,30.7596206 72.9235028,30.6546215 72.4385069,30.594622 L72.4385069,30.594622 Z M72.4485068,30.0246267 C71.7135129,29.8246284 69.4435319,29.5046311 69.2185338,30.3146243 C70.2835249,30.0946262 71.7335128,30.2696247 72.6385052,30.3646239 C72.6985047,30.1596256 72.7185045,30.0946262 72.4485068,30.0246267 L72.4485068,30.0246267 Z M69.8235288,28.8846363 C70.3635242,28.7396375 71.4535151,28.674638 72.5985055,29.1996336 C72.1985089,28.0096436 70.7085213,27.9696439 69.8235288,28.8846363 L69.8235288,28.8846363 Z M69.2835333,29.8246284 C70.3035247,29.2246334 72.3385077,29.62963 72.7035046,29.869628 C72.6735049,29.7196293 72.7085046,29.5846304 72.663505,29.4996311 C71.9135112,29.0846346 70.3235246,28.8746364 69.6135305,29.1146344 C69.4085322,29.3496324 69.3585326,29.5546307 69.2835333,29.8246284 L69.2835333,29.8246284 Z M67.9685443,32.859603 C68.2335421,32.9296024 68.4185405,33.0496014 68.6685384,33.1896002 C69.0535352,33.0796011 69.5235313,33.2046001 69.8535285,32.7846036 C69.6385303,32.5146059 69.558531,32.2746079 69.1435344,32.2346082 C69.3785325,31.3596156 69.4185321,30.9346191 69.0385353,30.474623 C68.7485378,31.5546139 68.4335404,32.1896086 67.9685443,32.859603 L67.9685443,32.859603 Z M64.7935709,16.144743 C64.9635695,15.7597462 65.1935675,15.4547488 65.4635653,15.2397506 C64.1685761,14.4597571 61.8785953,13.9197616 60.4536072,13.8997618 C60.5836061,14.2247591 60.6286058,14.594756 60.5836061,15.0147525 C61.9485947,14.7297548 63.8335789,15.1647512 64.7935709,16.144743 L64.7935709,16.144743 Z M54.1786598,20.2197089 C54.4136578,22.0146938 54.9086537,23.0896848 56.2936421,24.6096721 C57.4136327,25.7746623 60.0936102,26.9996521 62.1235932,26.889653 C64.4385739,26.7896538 66.7885542,25.7596625 67.9135448,23.9696775 C67.1935508,22.9096863 66.5385563,22.1596926 65.5335647,21.0947015 C64.5585729,23.1396844 62.7285882,24.0896764 60.5736062,23.5896806 C58.218626,23.0296853 57.3836329,21.0747017 57.0686356,19.0397187 C56.1236435,19.3747159 54.9236535,19.844712 54.1786598,20.2197089 L54.1786598,20.2197089 Z M51.9586784,23.4496818 C52.7886714,25.694663 55.6386476,28.4046403 59.1086185,29.3296326 C61.5785978,29.994627 64.2485754,29.9146277 66.5885558,28.6646381 C67.5185481,28.1246427 69.1535344,27.1146511 68.7485378,26.2146586 C66.2335588,28.6446383 62.8785869,29.6896295 59.403616,28.7596373 C55.7136469,27.844645 53.0986688,25.0496684 51.9786782,22.0096939 C51.4736824,22.3096914 51.7486801,22.8896865 51.9586784,23.4496818 L51.9586784,23.4496818 Z M46.8637211,22.949686 C47.2987174,22.9196862 49.2687009,23.5946806 49.853696,24.614672 C50.3936915,22.5996889 47.8437128,20.9047031 46.8637211,22.949686 L46.8637211,22.949686 Z M47.7637135,24.1296761 C47.0487195,23.8646783 46.273726,23.2946831 45.3587337,23.4846815 L44.8987375,24.6596717 C46.5237239,25.0246686 46.5387238,24.1596759 47.7637135,24.1296761 L47.7637135,24.1296761 Z M49.6586976,25.0696682 C49.8786958,24.264675 47.7437137,23.4046822 47.0087198,23.2046839 C46.7437221,23.1346844 46.7237222,23.2046839 46.6687227,23.4046822 C47.5037157,23.7696791 48.8537044,24.3496743 49.6586976,25.0696682 L49.6586976,25.0696682 Z M49.4736992,27.9046445 C49.4036998,27.0896513 49.4536994,26.3796573 49.738697,25.3046663 C49.1787017,25.5146645 49.0087031,25.9046612 48.7687051,26.774654 C48.3887083,26.5996554 48.1987099,26.764654 47.8787126,26.894653 C47.9537119,27.4196486 48.418708,27.5446475 48.7037056,27.839645 C48.9887033,27.844645 49.2087014,27.8346451 49.4736992,27.9046445 L49.4736992,27.9046445 Z M58.6486224,31.5846137 C61.9885944,32.4796062 65.6035641,32.0796095 68.5435395,29.9096277 C68.7735375,29.3196326 68.953536,28.3596407 68.8935365,27.5496475 C66.5235564,30.229625 62.4885902,30.8796196 59.0186193,29.9496274 C54.8136545,28.8246368 52.1136771,25.7946622 51.2636842,23.1096847 C50.8986873,23.66468 50.5786899,24.5896723 50.5036906,25.1446676 C51.523682,27.729646 54.6386559,30.5146226 58.6486224,31.5846137 L58.6486224,31.5846137 Z M58.5636231,32.4296066 L58.3636247,32.3746071 L55.1336518,42.8345194 C55.3136503,42.9545184 55.5686481,43.0945173 55.8336459,43.1645167 L58.5636231,32.4296066 Z M56.0986437,31.4796146 L52.7986713,38.4595561 C52.8986705,38.6295547 52.8786707,38.6945541 53.1736682,38.9195522 L56.3436417,31.6196134 L56.0986437,31.4796146 Z M53.8586625,30.234625 L51.2036847,33.9945935 C51.2136846,34.2145916 51.293684,34.4495897 51.4436827,34.7045875 L54.1086604,30.3746238 L53.8586625,30.234625 Z M51.4886823,27.8646448 L51.3236837,27.6746464 L50.4686909,28.4546399 L50.6836891,28.7296376 L51.4886823,27.8646448 Z M58.4636239,48.5594715 C58.4086244,47.9644765 57.373633,47.8344776 56.6036395,47.4794805 C54.1886597,46.6144878 51.6686808,45.869494 50.4686909,43.6745124 C51.0686858,44.1245086 51.6286811,44.4145062 52.3836748,44.5445051 C52.8686708,44.6045046 51.4936823,43.8745107 51.9836782,43.6445127 C52.5436735,44.2295078 53.433666,44.8995021 53.9886614,44.9745015 C54.3386584,44.9945014 53.0086696,44.3495068 53.5286652,44.2695074 C54.3086587,44.8395027 56.7086386,45.4844973 56.5886396,44.8745024 C56.5086403,44.6345044 55.943645,44.3445068 55.3136503,44.0295094 C53.0386693,42.9145188 50.9486868,40.5545385 50.2786925,38.7845534 C50.693689,39.1145506 51.1836849,39.6745459 51.9836782,39.8945441 C52.3186754,39.9845433 52.6386727,39.8495444 52.4286744,39.5745467 C51.9836782,39.0995507 51.2236845,38.4595561 51.2036847,37.7345622 C51.648681,38.2145581 52.0186779,38.1695585 52.1036772,38.1195589 C52.2736757,38.0195598 51.9936781,37.7295622 51.7786799,37.4545645 C50.6786891,36.2245748 50.1336937,34.7795869 49.8986956,32.9846019 L49.6936974,33.2196 C49.5736984,34.4845894 50.098694,35.7045792 49.3587002,37.6695627 C49.8686959,39.7545452 49.6336979,41.7145288 48.9987032,45.1445001 C52.483674,47.1044837 54.9036537,47.9644765 58.4636239,48.5594715 L58.4636239,48.5594715 Z M26.8988883,41.9045272 L80.8034368,56.2744069 L81.2834328,55.539413 L27.1338863,41.0245346 L26.8988883,41.9045272 Z M26.8288889,42.174525 C26.7438896,43.0145179 27.1638861,43.0545176 29.0338704,43.5595134 L78.1734588,56.7294031 C79.3734488,57.0494004 80.0734429,57.3843976 80.6434381,56.5994042 C76.238475,55.4094141 64.5235731,52.1294416 26.8288889,42.174525 L26.8288889,42.174525 Z M33.5238328,18.0047274 C34.5288244,17.9847276 35.4338168,18.0847267 37.0588032,18.1547262 L37.6687981,17.7447296 C36.7638057,17.6497304 35.9488125,17.4997316 34.8238219,17.4147324 L33.5238328,18.0047274 Z M23.8439139,25.7996621 L31.7988472,24.6896714 L32.0588451,24.2496751 L24.7339064,24.8846698 L23.8439139,25.7996621 Z M17.5739664,35.5845802 L28.4088756,31.9946102 L28.5188747,31.5946136 L18.1289617,34.5795886 L17.5739664,35.5845802 Z M15.5639832,47.8794772 L27.2638852,39.4795475 L27.288885,39.1245505 L14.3639933,47.5594799 L15.5639832,47.8794772 Z M28.6188739,45.8994938 L28.2188772,45.7894947 L23.3139183,49.9544598 L24.1139116,50.169458 L28.6188739,45.8994938 Z M28.8738717,48.4194727 L38.8237884,51.0844503 C40.7087726,49.92946 42.3437589,49.4344642 44.6237398,49.4644639 L29.6038656,45.4394976 L28.8738717,48.4194727 Z M32.8438385,53.3744312 L33.3338344,52.3544397 C33.9688291,52.3794395 34.3938255,52.4194392 35.0038204,52.799436 C35.0288202,53.2394323 34.9588208,53.50943 34.9138211,53.9294265 L38.1187943,54.7844194 L38.873788,51.959443 L30.7988556,49.7944612 L29.7088647,52.5344382 L32.8438385,53.3744312 Z M34.5438242,53.1794328 C34.2438268,52.9544347 33.7638308,52.8994351 33.4738332,52.8944352 C33.0388368,53.7144283 32.3588425,55.9844093 32.548841,56.6094041 C32.8438385,56.8344022 33.263835,56.8744019 33.5488326,56.8794018 C34.1338277,56.0294089 34.5088245,54.109425 34.5438242,53.1794328 L34.5438242,53.1794328 Z M28.7538727,55.0194174 L25.8738969,62.824352 C30.0638618,64.024342 32.3338428,64.6293369 35.288818,65.3443309 C36.0438117,62.5193546 36.6338067,60.5893707 37.4338,57.339398 L34.2288269,56.4844051 L33.7738307,57.3743977 C33.0988363,57.4793968 32.5188412,57.2543987 32.0888448,56.9944008 C32.0238454,56.6894034 31.9938456,56.5344047 32.0938448,55.9144099 L28.7538727,55.0194174 Z M35.0738198,66.1593241 L35.1838189,65.7543275 L25.4339005,63.1443493 L25.0639036,63.4743466 L35.0738198,66.1593241 Z M24.7489063,63.8243436 L24.183911,64.3243436 C25.853897,64.7693357 31.5738491,66.3743223 34.7988221,67.1693156 L34.9588208,66.5643207 C30.9788541,65.4243302 29.2688684,65.1093329 24.7489063,63.8243436 L24.7489063,63.8243436 Z M24.4539088,54.5144216 L28.1938774,55.5144132 L28.3538761,54.9094183 L13.1340036,50.8344524 C13.1340036,50.8344524 13.0590042,51.1044502 13.0140046,51.5294466 C18.3589598,52.9544347 20.4489423,53.4394306 24.4539088,54.5144216 L24.4539088,54.5144216 Z M46.4237247,75.6192449 C55.8386459,78.1392237 63.7935793,80.4892041 72.9635025,82.5891865 L74.1534925,78.1492237 L61.5385981,74.769252 L60.6186059,78.1992232 C52.2036763,75.9442421 39.0637864,72.6392698 33.738831,71.1392824 L34.6988229,67.5693123 L22.0789286,64.1893406 C21.6489322,65.5193294 21.2189358,67.1343159 20.9089384,68.5643039 C28.1738776,70.7992852 35.6738148,72.739269 46.4237247,75.6192449 L46.4237247,75.6192449 Z M56.7436383,21.3446994 C56.0886438,21.3846991 55.4736489,22.0846932 54.868654,21.9246946 C55.2486508,21.3096997 56.0836438,21.3846991 56.5936396,21.0897016 C56.7286384,21.1247013 56.7586382,21.2747 56.7436383,21.3446994 L56.7436383,21.3446994 Z M57.0336359,21.8496952 C57.2336342,21.9046947 57.1986345,22.0396936 57.3336334,22.0746933 C57.263634,22.3446911 56.6836388,22.6196888 56.5136402,22.7196879 C56.0936438,22.9646859 56.1236435,23.1196846 55.6986471,23.0796849 L55.5986479,22.9096863 C55.9686448,22.3596909 56.6236393,22.3246912 57.0336359,21.8496952 L57.0336359,21.8496952 Z M56.3936412,23.9896773 C56.8236376,23.4546818 57.1836346,22.9046864 57.8086294,22.709688 C57.8636289,23.304683 56.898637,23.6896798 56.8586373,24.1146762 C56.7236385,24.0796765 56.3736414,24.0546767 56.3936412,23.9896773 L56.3936412,23.9896773 Z M57.6286309,24.9696691 C57.73863,24.5696724 58.208626,23.6146804 58.7286217,23.5346811 L58.1936262,24.4746732 C57.9286284,25.1946672 57.8136293,25.0896681 57.6286309,24.9696691 L57.6286309,24.9696691 Z M59.5186151,23.8146787 C59.7586131,24.2446751 59.1386182,25.2296669 58.8486207,25.5146645 C58.4336242,25.1846673 59.3386166,24.1996755 59.5186151,23.8146787 L59.5186151,23.8146787 Z M59.7086135,26.0346602 C60.1036102,25.6346635 60.2636088,25.0296686 60.3786079,24.3396744 C60.4136076,24.2046755 60.4986069,24.1546759 60.6336057,24.1896756 C60.5336066,24.8096704 60.2886086,25.4696649 60.1736096,26.1596591 C60.0886103,26.2046587 59.8936119,26.1546592 59.7086135,26.0346602 L59.7086135,26.0346602 Z M61.3186,24.2996747 C61.6685971,24.3196745 61.6485972,24.3896739 61.6635971,24.6096721 C61.3036001,25.1596675 61.3585997,25.7546625 61.3285999,26.3946571 C60.8636038,25.9796606 61.3186,25.0896681 61.3186,24.2996747 L61.3186,24.2996747 Z M62.038594,26.1546592 C62.1785928,25.6146637 62.158593,25.1746674 62.153593,24.379674 C62.2235924,24.3946739 62.3735912,24.3646741 62.388591,24.2996747 C62.6635887,24.8746699 62.2435922,25.9146612 62.5235899,26.2096587 C62.2485922,26.4246569 62.0835936,26.2346585 62.038594,26.1546592 L62.038594,26.1546592 Z M63.3285832,26.1396593 C63.1235849,25.579664 62.8485872,24.7096713 63.0835852,24.1246762 C63.5285815,24.6046721 63.2935834,25.4796648 63.6735803,25.939661 C63.6335806,26.0696599 63.463582,26.169659 63.3285832,26.1396593 L63.3285832,26.1396593 Z M63.7235798,23.8646783 C64.2435755,23.784679 64.2635753,24.5146729 64.3935742,24.8396702 C64.6185723,25.3296661 64.6335722,25.2646666 64.9635695,25.6396635 C64.2035758,26.0796598 63.9785777,24.5096729 63.7235798,23.8646783 L63.7235798,23.8646783 Z M64.7585712,23.1996839 C65.1185682,23.7296795 65.5735643,24.4246736 65.7985625,24.9196695 L65.5085649,25.2046671 C65.3585662,24.4446735 64.5935726,24.0946764 64.7585712,23.1996839 L64.7585712,23.1996839 Z M14.7239902,77.7242272 C14.6189911,78.1292238 14.2889939,78.5492203 13.5440001,78.1292238 C12.6440077,76.9542337 14.8339893,76.5292372 14.7239902,77.7242272 L14.7239902,77.7242272 Z M12.3440102,66.054325 L14.0289961,70.9792837 L8.38404335,73.3592638 C7.86404771,72.3592722 6.94905537,70.1642905 6.37406018,68.5643039 C5.51406739,66.169324 6.83905629,65.2293319 8.37404343,65.6393284 C8.96903845,64.2143404 11.6090163,63.9843423 12.3440102,66.054325 L12.3440102,66.054325 Z M9.8940307,71.4542797 C9.28403581,69.994292 8.78404,68.9243009 8.11404561,67.1543158 C7.77404846,66.2743231 6.98405508,66.5643207 7.26905269,67.364314 C7.90404737,69.2642981 8.20904482,69.994292 9.01903803,71.7992768 L9.8940307,71.4542797 Z M12.6140079,70.3842887 L11.2090197,66.5493208 C10.6840241,65.0393335 8.64904113,65.4293302 9.4290346,67.5893121 C9.74903192,68.5393042 10.3590268,69.9992919 10.7690234,71.1192825 L12.6140079,70.3842887 Z M11.1940198,62.0693583 C8.86903929,62.7443527 7.35405198,63.05935 5.07907103,63.5343461 C4.64907463,61.394364 4.27407777,59.8543769 4.09407928,57.0644003 L5.13907053,56.9144015 C5.23406973,58.169391 5.69406588,61.2443653 5.8940642,62.0943581 L6.97405516,61.8043606 L6.24406127,56.7744027 L7.37405181,56.5744044 C7.47905093,58.3343896 7.84904783,59.8743767 8.16904515,61.6193621 L9.83403121,61.269365 C9.54403363,59.6743784 9.26903594,58.3043899 9.00403816,56.3594062 L10.1990281,56.1744077 C10.5290254,58.1393913 10.8240229,60.2393737 11.1940198,62.0693583 L11.1940198,62.0693583 Z M5.07907103,54.4444222 L3.83408146,54.5444214 C3.77408196,52.3694396 3.66408288,50.1044586 3.92908066,47.7944779 L5.04907128,47.8794772 L8.8440395,52.1444415 C8.86403933,50.9944511 8.91403891,49.4944637 9.11903719,48.1794747 L10.3090272,48.2794738 C10.1040289,50.3894562 10.0840291,52.3294399 10.1290287,54.2894235 L9.16903677,54.3944226 C8.47904255,53.4894302 5.83906467,50.2594573 5.04907128,49.4694639 C4.96907195,51.3844478 4.98907178,52.9044351 5.07907103,54.4444222 L5.07907103,54.4444222 Z M10.5490252,47.1144836 C9.67403255,46.3744898 7.47405097,43.9095104 5.3090691,41.0195346 C5.40906827,40.3995398 5.56906693,39.7945449 5.88406429,38.8645527 C8.14904532,38.1745585 10.4840258,37.7195623 13.079004,37.1195673 L12.6540076,38.4445562 L9.34903527,39.2845492 C8.99403824,40.3445403 8.63404126,41.4045314 8.27904423,42.7495202 C9.17903669,43.9345102 9.85403104,44.6145045 10.7890232,45.6594958 L10.5490252,47.1144836 Z M8.02404636,39.4445478 L6.87905595,39.7145456 L6.55405868,40.9245354 L7.35405198,41.934527 L8.02404636,39.4445478 Z M13.5939997,35.7445788 L7.82404804,33.2595996 L8.34404368,32.1046093 L12.9540051,34.1345923 C13.4990005,32.9096026 14.2589941,31.669613 14.8939888,30.6196218 L12.5940081,29.0646348 L13.2990022,28.0246435 L16.5789747,30.1996253 C15.4089845,32.1896086 14.5539917,33.7645954 13.5939997,35.7445788 L13.5939997,35.7445788 Z M17.9089636,28.4596398 C16.0889788,27.24965 14.4189928,26.0096604 12.6940073,24.6846715 C14.0889956,22.6796883 15.6039829,20.7747042 17.1939696,19.1097182 L18.0689622,19.849712 C16.6289743,21.4796983 15.7889813,22.4846899 14.4939922,24.3696741 L15.1389868,24.9046696 C16.2039779,23.5996806 17.5639665,21.7346962 18.808956,20.5547061 L19.6839487,21.2896999 C18.5339583,22.6396886 17.1989695,24.1596759 16.1489783,25.6796631 L17.503967,26.764654 C18.6389575,25.1896672 19.7039485,23.8896781 21.0039376,22.5096897 L21.8789303,23.2446835 C20.5889411,24.85467 19.0139543,26.7396543 17.9089636,28.4596398 L17.9089636,28.4596398 Z M23.5189166,21.6696967 C21.8689304,20.0747101 20.838939,18.8597203 19.2239526,17.1297347 L20.1139451,16.2147424 L23.4839169,19.9297113 L26.3438929,17.5247314 L24.2939101,15.0297523 L25.2289023,14.1947593 L27.9988791,17.7497295 C26.573891,19.0997182 24.9539046,20.324708 23.5189166,21.6696967 L23.5189166,21.6696967 Z M31.0088539,11.3497832 C30.1988606,9.83479584 32.5638408,9.81979597 32.1738441,11.009786 C32.068845,11.4147826 31.6788482,11.5297816 31.0088539,11.3497832 L31.0088539,11.3497832 Z M36.9738039,6.45482415 L36.6238068,5.35483336 C37.0288034,5.17483487 37.4338,4.99483638 37.9737955,4.85483755 C38.2137935,4.77483822 38.3287925,4.87483738 38.4887912,5.3498334 L38.6737897,5.97982813 C40.5287741,5.4698324 43.3587504,4.77983818 45.4837326,4.33984186 C46.4587244,4.16984329 46.7437221,4.17484325 46.98872,5.39483303 L47.3587169,7.2248177 L43.4337498,8.76980476 C41.9987618,9.31980015 41.973762,9.67479718 42.0837611,10.0647939 L43.0287532,9.73979664 L43.3137508,10.8247875 L41.6737645,11.3247834 L41.373767,10.3047919 C41.02377,9.19980116 41.7287641,8.4548074 42.5387573,8.09481041 C43.7787469,7.48481552 45.9087291,6.47482398 45.9087291,6.47482398 C45.8337297,5.94982838 45.9237289,5.60983123 45.2337347,5.78482976 C43.0937526,6.29482549 40.418775,6.94482005 38.0887946,7.61981439 L37.673798,6.21482616 L36.9738039,6.45482415 Z M48.6137064,3.87484576 L48.8687043,3.72484701 C50.9886865,5.159835 53.2086679,5.67983064 55.8836455,7.19481795 C57.2486341,6.90982034 57.5136319,6.18482641 57.7636298,5.5298319 C57.143635,5.43483269 56.658639,5.37983315 56.0236443,5.35483336 L56.1636432,4.0248445 C56.9386367,4.084844 57.7086302,4.1448435 58.6586223,4.33484191 C58.7886212,6.24482591 57.7986295,7.27481728 56.6486391,7.83481259 C57.4736322,8.48980711 57.8986286,9.03480254 57.8936287,10.1147935 L57.5236318,10.1597931 C56.4836405,8.43480757 54.7436551,8.25980903 50.6486894,6.44482423 C49.8886957,6.88982051 49.8436961,8.10481033 49.8636959,8.82980426 L51.1236854,8.66480564 L51.4186829,9.96979471 C50.3936915,10.059794 49.9386953,10.1497932 49.1137064,10.289792 C49.023703,8.75480489 48.8587043,6.97481979 49.9486952,6.114827 C49.1037023,5.52483194 48.6737059,4.97483655 48.6137064,3.87484576 L48.6137064,3.87484576 Z M60.12861,4.43984103 L60.3486081,3.3448502 L61.7885961,3.58484819 C61.9885944,3.63984773 62.0885935,3.8098463 61.9785945,4.21484291 L61.798596,4.8848373 C63.6835802,5.31983366 66.4885567,6.07482733 68.5235396,6.75982159 C69.5035314,7.09981875 69.7535293,7.23481762 69.3635326,8.42980761 L68.7435378,10.2097927 L64.6785718,9.6247976 C63.0885852,9.41479936 62.9335865,9.73479668 62.8385873,10.0697939 L63.7785794,10.3197918 C63.7685795,10.894787 63.6285806,11.1447849 63.468582,11.4647822 C62.8835869,11.2397841 62.2835919,11.0797854 61.798596,11.0197859 L62.0885935,9.93979496 C62.3785911,8.86480396 63.3235832,8.53980669 64.1585762,8.61980602 C65.5635644,8.70980526 67.8935449,8.82980426 67.8935449,8.82980426 C68.0185439,8.35980819 68.3085414,8.07481058 67.643547,7.89481209 C65.5235648,7.25481745 62.9185866,6.55982327 60.4986069,5.97982813 L60.8136042,4.54484015 L60.12861,4.43984103 Z M76.718471,17.8247289 C74.5484892,16.3047416 71.7435127,14.7597546 69.2835333,13.5247649 C69.4585318,13.1397682 69.7185296,12.7047718 70.0435269,12.2847753 C72.2535084,13.3797661 74.4984896,14.6297557 76.6334717,15.9997442 C75.5784806,14.0597605 74.5534891,12.2697754 73.4634983,10.4647906 L71.3185162,9.38479961 L72.0335102,8.06481066 C72.8635033,8.42980761 73.3834989,8.64480581 74.0584933,9.0398025 L74.0034937,10.3247917 L76.9984687,14.3697579 C77.6384633,14.10976 78.1884587,13.6797636 78.4634564,13.1747679 L77.1884671,12.3297749 L78.03346,11.0397857 C78.8284533,11.5447815 78.8934528,11.5597814 79.4884478,12.0097776 C79.8534447,12.2497756 80.0484431,12.5947727 79.703446,13.0797687 C79.3584489,13.5597646 79.0284517,13.9797611 78.5384558,14.2097592 L77.2184668,14.8647537 C77.4584648,15.2947501 77.6584631,15.6297473 77.8634614,16.1897426 C77.4734647,16.8747369 77.2134669,17.3097332 76.718471,17.8247289 L76.718471,17.8247289 Z M82.9934184,19.5047148 C83.0834177,18.3747243 84.2684078,18.764721 84.1084091,19.369716 C84.0934092,19.9447112 83.4184149,20.0497103 82.9934184,19.5047148 L82.9934184,19.5047148 Z M78.1284592,18.7047215 L79.1184509,17.6747302 C80.8884361,19.0897183 82.4734228,20.6647051 83.9834102,22.2246921 C85.1434004,22.1746925 85.5133973,22.1296929 86.0733927,21.629697 L86.9433854,20.7847041 C85.0584012,18.4747235 83.7084125,17.1047349 81.3434323,15.2447505 L82.3534238,14.1447597 C84.718404,15.9997442 86.2983908,17.579731 88.0883758,19.719713 C88.6333712,20.3697076 88.7033706,20.8947032 87.8683776,21.6096972 L87.1333838,22.2046922 C86.4033899,22.8046872 86.2983908,22.9196862 84.6734044,22.8446869 C85.0684011,23.2396836 85.3983983,23.6196804 85.6583961,23.9746774 L84.3334072,24.9196695 C82.683421,22.8096872 79.9284441,20.2697084 78.1284592,18.7047215 L78.1284592,18.7047215 Z M89.2983656,25.0896681 C89.7533618,24.9946689 90.1133588,25.5246644 90.0033597,25.929661 C89.6383628,27.5596474 87.6683793,25.3046663 89.2983656,25.0896681 L89.2983656,25.0896681 Z M88.7083706,30.7746205 C89.8933607,30.0846262 91.4683475,29.279633 92.2483409,28.7646373 C92.4933389,29.1896337 92.6883372,29.5346308 92.8133362,29.8546282 L90.3233571,31.1346174 L91.4433477,33.094601 C92.9833348,32.4246066 94.5183219,31.7546122 96.0783089,31.0196184 L96.6433041,32.1096093 L90.9433519,34.6895877 C90.2883573,33.4345982 89.7683617,32.4246066 88.7083706,30.7746205 L88.7083706,30.7746205 Z M92.0283428,37.0695677 L98.0082927,34.7795869 C98.7932861,36.9345689 99.3382815,38.3795568 99.9732762,41.0745342 L98.808286,41.4145313 C98.5982877,40.0595427 97.728295,37.4445646 97.4082977,36.4945725 L96.3783063,36.8645694 L97.733295,41.699529 L96.653304,41.9845266 C96.2183077,40.139542 95.7533116,38.9345521 95.3033153,37.1495671 L93.5633299,37.7645619 C94.0883255,39.2745493 94.513322,40.614538 95.0033179,42.5495218 L93.8883272,42.9745183 C93.3483317,40.9595351 92.7483367,38.9245522 92.0283428,37.0695677 L92.0283428,37.0695677 Z M94.268324,44.7395035 C96.3783063,44.3645066 98.5332883,43.7895114 100.548271,43.4645142 C101.133267,45.5694965 101.318265,46.4794889 101.428264,48.4594723 C101.573263,50.5894545 98.6632872,51.0344508 98.2532906,48.8294692 L94.9783181,50.6244542 L94.8533191,49.219466 L97.9832929,47.6794789 C97.9332933,46.7994862 97.7432949,46.1694915 97.5582965,45.2594991 L94.4583224,45.869494 L94.268324,44.7395035 Z M98.6432874,44.9745015 C98.9382849,46.2844905 99.0982836,47.54948 99.1932828,48.8044694 C99.2332824,49.4644639 100.353273,49.5444632 100.303273,48.6694706 C100.223274,47.6394792 100.213274,46.3344901 99.7032785,44.7595033 L98.6432874,44.9745015 Z M95.1883163,53.0644338 C97.8082944,52.8994351 99.0132843,52.9344349 101.463264,52.8694354 L101.423264,54.0844252 C99.648279,54.0394256 97.9832929,54.0994251 96.4583057,54.1944243 C96.4583057,55.2744153 96.298307,56.3894059 96.2283076,57.449397 C98.1482915,57.7443946 99.4582805,57.9543928 101.263265,58.1493912 L101.173266,59.2793817 C99.0332841,58.9943841 97.2932987,58.8143856 94.8333193,58.3743893 C94.983318,56.7544029 95.1233169,54.9194182 95.1883163,53.0644338 L95.1883163,53.0644338 Z" id="logo2" fill="#FFFFFF" fill-rule="nonzero"></path>
    </g>
</svg>